<svg width="156" height="84" viewBox="0 0 156 84" fill="none" xmlns="http://www.w3.org/2000/svg">
<g filter="url(#filter0_d_922_13450)">
<g filter="url(#filter1_iii_922_13450)">
<path d="M88.8571 3H67.746L2 81H78H154L88.8571 3Z" fill="url(#paint0_linear_922_13450)"/>
</g>
<path d="M51.9438 41C60.8831 30.8 71.9663 13.4 75 8C75 8 57.4045 33.2 48.3034 44C39.2022 54.8 21 74 21 74C25.4494 69.4 36.1685 59 51.9438 41Z" fill="#DEE2E6"/>
<path d="M107.456 44.0216C115.643 54.6805 130.449 68.8613 135.125 72.8723C135.125 72.8723 113.994 50.8515 105.252 39.9152C96.5099 28.979 81.3759 7.59401 81.3759 7.59401C84.9839 12.8025 93.0084 25.2117 107.456 44.0216Z" fill="#DEE2E6"/>
<path d="M69 10L9 81H10.2121L69 10Z" fill="#DEE2E6"/>
<path d="M86 10L146 81H144.788L86 10Z" fill="#DEE2E6"/>
<path d="M71 10L12 81H12.602L71 10Z" fill="#DEE2E6"/>
<path d="M88 10L147 81H146.398L88 10Z" fill="#DEE2E6"/>
<path d="M23 67L11 81H11.6L23 67Z" fill="#DEE2E6"/>
<path d="M73 9L47 43C47.8062 42.3929 50.7488 38.3857 56.0698 32.0714C61.3907 25.7571 69.5736 14.4643 73 9Z" fill="#DEE2E6"/>
</g>
<path d="M15 81C15 81 38.0461 61.6984 53.3396 43C65.9067 27.6351 74.6755 11.8629 77.4026 6.72761C77.7855 6.00665 78.83 5.9977 79.2202 6.71471C82.0637 11.9396 91.2801 28.2783 103.66 44.2063C118.663 63.5079 142 81 142 81L15 81Z" fill="url(#paint1_linear_922_13450)"/>
<g filter="url(#filter2_ii_922_13450)">
<path fill-rule="evenodd" clip-rule="evenodd" d="M62.621 2.52507C62.621 1.13051 63.7515 0 65.1461 0H88.9182C90.3128 0 91.4433 1.13051 91.4433 2.52507C91.4433 3.10226 91.2496 3.63422 90.9237 4.05951L153.447 78.8828C154.333 79.9428 154.195 81.5237 153.138 82.4138C152.082 83.3039 150.507 83.1661 149.622 82.1061L85.2801 5.107C85.2644 5.0882 85.249 5.06925 85.2339 5.05013H69.824C69.8089 5.06923 69.7935 5.08818 69.7778 5.10696L5.4363 82.1061C4.55053 83.1661 2.97612 83.3039 1.91974 82.4138C0.863365 81.5237 0.725057 79.9428 1.61082 78.8828L63.6915 4.58929C63.0439 4.13214 62.621 3.37799 62.621 2.52507Z" fill="url(#paint2_linear_922_13450)"/>
</g>
<defs>
<filter id="filter0_d_922_13450" x="0.797251" y="3" width="154.405" height="80.4055" filterUnits="userSpaceOnUse" color-interpolation-filters="sRGB">
<feFlood flood-opacity="0" result="BackgroundImageFix"/>
<feColorMatrix in="SourceAlpha" type="matrix" values="0 0 0 0 0 0 0 0 0 0 0 0 0 0 0 0 0 0 127 0" result="hardAlpha"/>
<feOffset dy="1.20275"/>
<feGaussianBlur stdDeviation="0.601375"/>
<feComposite in2="hardAlpha" operator="out"/>
<feColorMatrix type="matrix" values="0 0 0 0 0 0 0 0 0 0 0 0 0 0 0 0 0 0 0.14 0"/>
<feBlend mode="normal" in2="BackgroundImageFix" result="effect1_dropShadow_922_13450"/>
<feBlend mode="normal" in="SourceGraphic" in2="effect1_dropShadow_922_13450" result="shape"/>
</filter>
<filter id="filter1_iii_922_13450" x="1.39863" y="2.39863" width="153.203" height="79.2027" filterUnits="userSpaceOnUse" color-interpolation-filters="sRGB">
<feFlood flood-opacity="0" result="BackgroundImageFix"/>
<feBlend mode="normal" in="SourceGraphic" in2="BackgroundImageFix" result="shape"/>
<feColorMatrix in="SourceAlpha" type="matrix" values="0 0 0 0 0 0 0 0 0 0 0 0 0 0 0 0 0 0 127 0" result="hardAlpha"/>
<feOffset dx="2" dy="2.5"/>
<feGaussianBlur stdDeviation="0.300687"/>
<feComposite in2="hardAlpha" operator="arithmetic" k2="-1" k3="1"/>
<feColorMatrix type="matrix" values="0 0 0 0 0 0 0 0 0 0 0 0 0 0 0 0 0 0 0.14 0"/>
<feBlend mode="normal" in2="shape" result="effect1_innerShadow_922_13450"/>
<feColorMatrix in="SourceAlpha" type="matrix" values="0 0 0 0 0 0 0 0 0 0 0 0 0 0 0 0 0 0 127 0" result="hardAlpha"/>
<feOffset dx="-2.5" dy="2.4"/>
<feGaussianBlur stdDeviation="0.300687"/>
<feComposite in2="hardAlpha" operator="arithmetic" k2="-1" k3="1"/>
<feColorMatrix type="matrix" values="0 0 0 0 0 0 0 0 0 0 0 0 0 0 0 0 0 0 0.14 0"/>
<feBlend mode="normal" in2="effect1_innerShadow_922_13450" result="effect2_innerShadow_922_13450"/>
<feColorMatrix in="SourceAlpha" type="matrix" values="0 0 0 0 0 0 0 0 0 0 0 0 0 0 0 0 0 0 127 0" result="hardAlpha"/>
<feOffset dy="-0.601375"/>
<feGaussianBlur stdDeviation="6.01375"/>
<feComposite in2="hardAlpha" operator="arithmetic" k2="-1" k3="1"/>
<feColorMatrix type="matrix" values="0 0 0 0 0 0 0 0 0 0 0 0 0 0 0 0 0 0 0.04 0"/>
<feBlend mode="normal" in2="effect2_innerShadow_922_13450" result="effect3_innerShadow_922_13450"/>
</filter>
<filter id="filter2_ii_922_13450" x="0.666519" y="-0.360825" width="153.865" height="83.8616" filterUnits="userSpaceOnUse" color-interpolation-filters="sRGB">
<feFlood flood-opacity="0" result="BackgroundImageFix"/>
<feBlend mode="normal" in="SourceGraphic" in2="BackgroundImageFix" result="shape"/>
<feColorMatrix in="SourceAlpha" type="matrix" values="0 0 0 0 0 0 0 0 0 0 0 0 0 0 0 0 0 0 127 0" result="hardAlpha"/>
<feOffset dx="-0.360825" dy="-0.360825"/>
<feGaussianBlur stdDeviation="0.180412"/>
<feComposite in2="hardAlpha" operator="arithmetic" k2="-1" k3="1"/>
<feColorMatrix type="matrix" values="0 0 0 0 0 0 0 0 0 0 0 0 0 0 0 0 0 0 0.14 0"/>
<feBlend mode="normal" in2="shape" result="effect1_innerShadow_922_13450"/>
<feColorMatrix in="SourceAlpha" type="matrix" values="0 0 0 0 0 0 0 0 0 0 0 0 0 0 0 0 0 0 127 0" result="hardAlpha"/>
<feOffset dx="0.5" dy="0.5"/>
<feGaussianBlur stdDeviation="0.25"/>
<feComposite in2="hardAlpha" operator="arithmetic" k2="-1" k3="1"/>
<feColorMatrix type="matrix" values="0 0 0 0 1 0 0 0 0 1 0 0 0 0 1 0 0 0 0.25 0"/>
<feBlend mode="normal" in2="effect1_innerShadow_922_13450" result="effect2_innerShadow_922_13450"/>
</filter>
<linearGradient id="paint0_linear_922_13450" x1="78.6032" y1="3" x2="101.891" y2="110.451" gradientUnits="userSpaceOnUse">
<stop stop-color="white"/>
<stop offset="1" stop-color="#FFF2E8"/>
</linearGradient>
<linearGradient id="paint1_linear_922_13450" x1="78.5023" y1="-2.84127" x2="78.499" y2="82.2064" gradientUnits="userSpaceOnUse">
<stop stop-color="#060D24"/>
<stop offset="0.3461" stop-color="#243348"/>
</linearGradient>
<linearGradient id="paint2_linear_922_13450" x1="59.9259" y1="-2.51644" x2="100.625" y2="148.218" gradientUnits="userSpaceOnUse">
<stop stop-color="#97E677"/>
<stop offset="1" stop-color="#68A772"/>
</linearGradient>
</defs>
</svg>
