<svg width="44" height="44" viewBox="0 0 44 44" fill="none" xmlns="http://www.w3.org/2000/svg">
<g id="shape">
<mask id="mask0_2467_310" style="mask-type:alpha" maskUnits="userSpaceOnUse" x="0" y="0" width="44" height="44">
<path id="Vector" d="M22 44C34.1503 44 44 34.1503 44 22C44 9.84974 34.1503 0 22 0C9.84974 0 0 9.84974 0 22C0 34.1503 9.84974 44 22 44Z" fill="#D9D9D9"/>
</mask>
<g mask="url(#mask0_2467_310)">
<path id="bg" d="M22 44C34.1503 44 44 34.1503 44 22C44 9.84974 34.1503 0 22 0C9.84974 0 0 9.84974 0 22C0 34.1503 9.84974 44 22 44Z" fill="#DEE2E6"/>
<g id="&#236;&#150;&#188;&#234;&#181;&#180;">
<path id="&#236;&#150;&#188;&#234;&#181;&#180;_2" d="M6.12512 25.77C1.6853 28.0801 1.39754 32.3703 1.80863 34.2267C-1.68567 37.1143 -7.64653 49.9025 22.1578 49.6963C46.0012 49.5313 45.3846 39.3145 42.0958 34.2267C42.2603 30.4314 39.2867 27.4201 37.7794 26.3888C38.9441 21.7136 39.6704 12.1981 33.2573 11.5381C26.8443 10.8781 24.6929 18.0009 24.4188 21.6448C24.2544 20.1598 22.8429 20.3385 22.1578 20.6135C20.5134 19.9536 19.8283 20.8885 19.6912 21.4385C19.3486 17.3133 17.1013 9.39293 10.8527 10.713C4.60407 12.0331 5.09738 21.301 6.12512 25.77Z" fill="white"/>
<g id="&#234;&#183;&#184;&#235;&#166;&#188;&#236;&#158;&#144;" filter="url(#filter0_f_2467_310)">
<path d="M-8 27L4.5 40.5L22.5 47.5L39 40.5L55 27V59H-8V27Z" fill="#EFDDDD"/>
</g>
<g id="&#235;&#136;&#136;&#236;&#189;&#148;" filter="url(#filter1_d_2467_310)">
<ellipse id="Ellipse 508" cx="27.2443" cy="31.9951" rx="1.33008" ry="1.99513" fill="#212529"/>
<ellipse id="Ellipse 511" cx="14.8301" cy="32.0391" rx="1.33008" ry="1.99513" fill="#212529"/>
<circle id="Ellipse 510" cx="31.0015" cy="30.5" r="0.5" fill="#212529"/>
<path id="Vector 521" d="M14.6079 35.9883C16.1597 37.0228 19.6622 38.1608 21.2583 34.4365C22.0712 35.9144 24.6279 38.2051 28.3521 35.5449" stroke="#212529" stroke-width="0.886723" stroke-linecap="round" stroke-linejoin="round"/>
</g>
<g id="&#234;&#183;&#128;">
<path id="Vector 527" d="M12.0704 15.1202C9.26346 15.229 10.0405 20.0847 10.7827 22.6204C10.837 22.8059 11.0457 22.8921 11.2198 22.8084C12.3322 22.2735 13.2661 21.9503 14.8543 21.8149C15.0047 21.8021 15.1278 21.6873 15.1418 21.5369C15.3627 19.1724 14.9065 15.0103 12.0704 15.1202Z" fill="#FFA1B5"/>
<path id="Vector 528" d="M32.2722 15.1202C35.0792 15.229 34.3022 20.0847 33.56 22.6204C33.5057 22.8059 33.297 22.8921 33.1228 22.8084C32.0105 22.2735 31.0766 21.9503 29.4883 21.8149C29.3379 21.8021 29.2149 21.6873 29.2008 21.5369C28.9799 19.1724 29.4361 15.0103 32.2722 15.1202Z" fill="#FFA1B5"/>
</g>
<g id="&#235;&#172;&#180;&#235;&#138;&#172;" style="mix-blend-mode:multiply">
<mask id="mask1_2467_310" style="mask-type:alpha" maskUnits="userSpaceOnUse" x="-2" y="10" width="46" height="40">
<path id="Vector 518" d="M6.12512 25.77C1.6853 28.0801 1.39754 32.3703 1.80863 34.2267C-1.68567 37.1143 -7.64653 49.9025 22.1578 49.6963C46.0012 49.5313 45.3846 39.3145 42.0958 34.2267C42.2603 30.4314 39.2867 27.4201 37.7794 26.3888C38.9441 21.7136 39.6704 12.1981 33.2573 11.5381C26.8443 10.8781 24.6929 18.0009 24.4188 21.6448C24.2544 20.1598 22.8429 20.3385 22.1578 20.6135C20.5134 19.9536 19.8283 20.8885 19.6912 21.4385C19.3486 17.3133 17.1013 9.39293 10.8527 10.713C4.60407 12.0331 5.09738 21.301 6.12512 25.77Z" fill="white"/>
</mask>
<g mask="url(#mask1_2467_310)">
<path id="Vector 519" d="M22.0995 24.9853C17.3365 29.5836 7.58059 26.629 4.5 24.9853L2.49291 12.8338L9.48749 7.02998L30.4555 4.85893L42.2847 11.3208L39.6928 25.2383C34.4481 30.1965 26.112 27.1356 22.0995 24.9853Z" fill="#FDE7EB"/>
</g>
</g>
</g>
</g>
</g>
<defs>
<filter id="filter0_f_2467_310" x="-20" y="15" width="87" height="56" filterUnits="userSpaceOnUse" color-interpolation-filters="sRGB">
<feFlood flood-opacity="0" result="BackgroundImageFix"/>
<feBlend mode="normal" in="SourceGraphic" in2="BackgroundImageFix" result="shape"/>
<feGaussianBlur stdDeviation="6" result="effect1_foregroundBlur_2467_310"/>
</filter>
<filter id="filter1_d_2467_310" x="7.5" y="30" width="30.0015" height="25.4434" filterUnits="userSpaceOnUse" color-interpolation-filters="sRGB">
<feFlood flood-opacity="0" result="BackgroundImageFix"/>
<feColorMatrix in="SourceAlpha" type="matrix" values="0 0 0 0 0 0 0 0 0 0 0 0 0 0 0 0 0 0 127 0" result="hardAlpha"/>
<feOffset dy="12"/>
<feGaussianBlur stdDeviation="3"/>
<feComposite in2="hardAlpha" operator="out"/>
<feColorMatrix type="matrix" values="0 0 0 0 1 0 0 0 0 1 0 0 0 0 1 0 0 0 1 0"/>
<feBlend mode="normal" in2="BackgroundImageFix" result="effect1_dropShadow_2467_310"/>
<feBlend mode="normal" in="SourceGraphic" in2="effect1_dropShadow_2467_310" result="shape"/>
</filter>
</defs>
</svg>
