<svg width="48" height="48" viewBox="0 0 48 48" fill="none" xmlns="http://www.w3.org/2000/svg">
<rect x="0.75" y="0.75" width="46.5" height="46.5" rx="23.25" stroke="#FFA256" stroke-width="1.5"/>
<rect x="4" y="4" width="40" height="40" rx="20" fill="#FFA256"/>
<path d="M17.85 26.3452C17.85 26.413 17.8955 26.4724 17.9609 26.4901C18.0263 26.5077 18.0954 26.4794 18.1295 26.4209L18.1296 26.4207L18.1306 26.4191L18.1367 26.4094C18.1425 26.4004 18.1518 26.3863 18.1648 26.3679C18.1908 26.3311 18.2317 26.277 18.289 26.2114C18.4036 26.0802 18.584 25.9029 18.8433 25.7248C19.3602 25.3698 20.1973 25.0071 21.4667 25.0071C22.7199 25.0071 23.554 25.5202 24.4211 26.0562L24.4291 26.0611C25.2928 26.595 26.1907 27.15 27.5333 27.15C29.561 27.15 30.5753 26.2649 30.9528 25.8248C31.0977 25.6558 31.15 25.4432 31.15 25.2419V17.6548C31.15 17.587 31.1045 17.5276 31.0391 17.5099C30.9737 17.4923 30.9046 17.5206 30.8705 17.5791L30.8704 17.5793L30.8694 17.5809L30.8633 17.5906C30.8575 17.5996 30.8482 17.6137 30.8352 17.6321C30.8092 17.6689 30.7683 17.723 30.711 17.7886C30.5964 17.9198 30.416 18.0971 30.1567 18.2752C29.6398 18.6302 28.8027 18.9929 27.5333 18.9929C26.2801 18.9929 25.446 18.4798 24.5789 17.9438L24.5709 17.9389C23.7072 17.405 22.8093 16.85 21.4667 16.85C20.136 16.85 19.2398 17.2314 18.6734 17.6204C18.391 17.8144 18.1922 18.0091 18.0631 18.1569C17.9985 18.2308 17.9514 18.293 17.9198 18.3375C17.9041 18.3598 17.8922 18.3777 17.8841 18.3905L17.8745 18.4057L17.8718 18.4102L17.8709 18.4117L17.8706 18.4122L17.8705 18.4124C17.8704 18.4125 17.8704 18.4126 18 18.4881L17.8704 18.4126C17.857 18.4355 17.85 18.4616 17.85 18.4881V26.3452Z" fill="#FCFFAF" stroke="#FCFFAF" stroke-width="0.3" stroke-linecap="round" stroke-linejoin="round"/>
<path d="M18 17V32" stroke="#FFD0A9" stroke-width="2" stroke-linecap="round"/>
</svg>
