<svg width="59" height="28" viewBox="0 0 59 28" fill="none" xmlns="http://www.w3.org/2000/svg">
<rect x="0.5" y="0.5" width="58" height="27" rx="13.5" fill="#243348"/>
<rect x="0.5" y="0.5" width="58" height="27" rx="13.5" stroke="#060D24"/>
<path d="M14.3171 14.5772L17 11L17.4766 11.2383C17.7514 11.3757 17.8385 11.7261 17.6599 11.9761L15.5 15L17.9136 16.4481C17.949 16.4694 17.9448 16.5221 17.9064 16.5374L15.5 17.5C15.5 17.5 14.9763 19.3284 14 20.5C14.9763 18.7426 15.5 16 15.5 16L14.4398 15.2932C14.2009 15.134 14.1449 14.8068 14.3171 14.5772Z" fill="#D3EDFF"/>
<path d="M14 20.5C14.9763 18.7426 15.5 16 15.5 16L14.4398 15.2932C14.2009 15.134 14.1449 14.8068 14.3171 14.5772L17 11L17.4766 11.2383C17.7514 11.3757 17.8385 11.7261 17.6599 11.9761L15.5 15L17.9136 16.4481C17.949 16.4694 17.9448 16.5221 17.9064 16.5374L15.5 17.5C15.5 17.5 14.9763 19.3284 14 20.5ZM14 20.5C14.781 20.5 16 20.5 16 20.5" stroke="#D3EDFF" stroke-width="1.7" stroke-linecap="round"/>
<path d="M13 11L13.9534 8.6165C13.9773 8.55686 14.0504 8.53486 14.1032 8.57142L20.3968 12.9286C20.4496 12.9651 20.5227 12.9431 20.5466 12.8835L21.5 10.5" stroke="#D3EDFF" stroke-width="1.7" stroke-linecap="round"/>
<circle cx="18.5" cy="8" r="1" fill="#D3EDFF" stroke="#D3EDFF"/>
<path d="M11 17L15 17" stroke="#D3EDFF" stroke-width="1.5" stroke-linecap="round"/>
<path d="M9 14L15 14" stroke="#D3EDFF" stroke-width="1.5" stroke-linecap="round"/>
<path d="M32.548 8.556H33.904V8.976C33.904 10.236 35.368 11.532 37.528 11.844L37.036 12.876C35.296 12.6 33.916 11.748 33.244 10.62C32.56 11.772 31.18 12.624 29.428 12.9L28.924 11.868C31.108 11.556 32.548 10.26 32.548 8.976V8.556ZM28.396 13.608H38.068V14.664H34V16.608H32.68V14.664H28.396V13.608ZM29.56 15.648H30.88V17.7H37V18.768H29.56V15.648ZM43.7483 11.736H45.9683V8.268H47.2763V18.984H45.9683V12.804H43.7483V11.736ZM40.9763 9.144H42.2963V10.836C42.2963 12.816 43.2203 14.772 44.9123 15.54L44.1323 16.596C42.9443 16.008 42.1043 14.88 41.6363 13.5C41.1683 14.964 40.3043 16.164 39.1043 16.776L38.2883 15.72C40.0043 14.904 40.9763 12.84 40.9763 10.836V9.144Z" fill="#D3EDFF"/>
</svg>
