<svg xmlns="http://www.w3.org/2000/svg" width="20" height="18" viewBox="0 0 20 18" fill="none">
  <path d="M4.89083 9.28716L2.20881 8.35006C1.3152 8.03783 1.31529 6.77405 2.20893 6.46194L17.0682 1.27238C17.7975 1.0177 18.5278 1.65077 18.3793 2.40879L16.0512 14.2874C15.9258 14.9273 15.2312 15.2779 14.6419 14.9988L10.4696 13.0226C10.0757 12.8361 9.60637 12.9261 9.30947 13.2452L7.66497 15.0124C7.07519 15.6462 6.01338 15.282 5.93681 14.4196L5.55707 10.1428C5.52233 9.75145 5.26169 9.41674 4.89083 9.28716Z" fill="#A6DAFF"/>
  <mask id="mask0_3521_22628" style="mask-type:alpha" maskUnits="userSpaceOnUse" x="1" y="1" width="18" height="15">
    <path d="M4.89083 9.28716L2.20881 8.35006C1.3152 8.03783 1.31529 6.77405 2.20893 6.46194L17.0682 1.27238C17.7975 1.0177 18.5278 1.65077 18.3793 2.40879L16.0512 14.2874C15.9258 14.9273 15.2312 15.2779 14.6419 14.9988L10.4696 13.0226C10.0757 12.8361 9.60637 12.9261 9.30947 13.2452L7.66497 15.0124C7.07519 15.6462 6.01338 15.282 5.93681 14.4196L5.55707 10.1428C5.52233 9.75145 5.26169 9.41674 4.89083 9.28716Z" fill="#4DB4FF"/>
  </mask>
  <g mask="url(#mask0_3521_22628)">
    <path d="M3.00049 18L2.57471 18.4256C2.28393 18.7162 1.7965 18.4317 1.90653 18.0356L3.95823 10.6487C3.98486 10.5528 4.04629 10.4703 4.13051 10.4173L15.3623 3.3453C15.7478 3.10259 16.1744 3.58992 15.8828 3.93986L14.9996 4.99968L3.00049 18Z" fill="#4DB4FF"/>
  </g>
</svg>