<svg xmlns="http://www.w3.org/2000/svg" width="18" height="19" viewBox="0 0 18 19" fill="none">
  <rect width="2.5" height="6" rx="1.25" transform="matrix(0.866025 0.5 -0.470186 0.882568 4.82129 12.5)" fill="#99ADC9"/>
  <rect width="2.5" height="6" rx="1.25" transform="matrix(-0.866025 0.5 0.470186 0.882568 12.9863 12.5)" fill="#99ADC9"/>
  <path d="M11 -4.37114e-08C11.5523 -1.95703e-08 12 0.447715 12 1L12 3L6 3L6 1C6 0.447715 6.44772 -2.42698e-07 7 -2.18557e-07L11 -4.37114e-08Z" fill="#99ADC9"/>
  <path d="M1 4C1 2.89543 1.89543 2 3 2H15C16.1046 2 17 2.89543 17 4V14H1V4Z" fill="#BDE2FD"/>
  <path d="M4.49358 8.99996C5.54835 7.67497 7.20728 6.19179 9.06952 8.13486C10.7045 9.84081 12.2673 9.27224 13.5574 8.46556" stroke="#4DB4FF" stroke-width="2" stroke-linecap="round"/>
  <rect x="18" y="14" width="2" height="18" rx="1" transform="rotate(90 18 14)" fill="#99ADC9"/>
</svg>
