<svg width="156" height="84" viewBox="0 0 156 84" fill="none" xmlns="http://www.w3.org/2000/svg">
<g filter="url(#filter0_d_922_13440)">
<g filter="url(#filter1_iii_922_13440)">
<path d="M88.8571 3H67.746L2 81H78H154L88.8571 3Z" fill="url(#paint0_linear_922_13440)"/>
</g>
<path d="M51.9438 41C60.8831 30.8 71.9663 13.4 75 8C75 8 57.4045 33.2 48.3034 44C39.2022 54.8 21 74 21 74C25.4494 69.4 36.1685 59 51.9438 41Z" fill="#DEE2E6"/>
<path d="M107.456 44.0216C115.643 54.6805 130.449 68.8613 135.125 72.8723C135.125 72.8723 113.994 50.8514 105.252 39.9152C96.5099 28.979 81.3759 7.594 81.3759 7.594C84.9839 12.8025 93.0084 25.2117 107.456 44.0216Z" fill="#DEE2E6"/>
<path d="M69 10L9 81H10.2121L69 10Z" fill="#DEE2E6"/>
<path d="M86 10L146 81H144.788L86 10Z" fill="#DEE2E6"/>
<path d="M71 10L12 81H12.602L71 10Z" fill="#DEE2E6"/>
<path d="M88 10L147 81H146.398L88 10Z" fill="#DEE2E6"/>
<path d="M23 67L11 81H11.6L23 67Z" fill="#DEE2E6"/>
<path d="M73 9L47 43C47.8062 42.3929 50.7488 38.3857 56.0698 32.0714C61.3907 25.7571 69.5736 14.4643 73 9Z" fill="#DEE2E6"/>
</g>
<path d="M15 81C15 81 38.0461 61.6984 53.3396 43C65.9061 27.6358 74.6747 11.8643 77.4023 6.72828C77.7853 6.00705 78.8302 5.99809 79.2206 6.71536C82.0645 11.9409 91.2806 28.279 103.66 44.2063C118.663 63.5079 142 81 142 81L15 81Z" fill="url(#paint1_linear_922_13440)"/>
<g filter="url(#filter2_ii_922_13440)">
<path fill-rule="evenodd" clip-rule="evenodd" d="M62.9935 2.52585C62.9935 1.13083 64.1244 -6.10352e-05 65.5194 -6.10352e-05H89.4784C90.8734 -6.10352e-05 92.0043 1.13083 92.0043 2.52585C92.0043 2.9649 91.8923 3.37778 91.6953 3.73749L154.419 78.9016C155.308 79.9663 155.16 81.5442 154.09 82.4259C153.02 83.3076 151.432 83.1593 150.543 82.0946L86.2514 5.05176H69.7468L5.45497 82.0946C4.56646 83.1593 2.97848 83.3076 1.90812 82.4259C0.83775 81.5442 0.690327 79.9663 1.57883 78.9016L63.7831 4.36038C63.2969 3.89999 62.9935 3.24834 62.9935 2.52585Z" fill="url(#paint2_linear_922_13440)"/>
</g>
<defs>
<filter id="filter0_d_922_13440" x="0.796803" y="3" width="154.406" height="80.4064" filterUnits="userSpaceOnUse" color-interpolation-filters="sRGB">
<feFlood flood-opacity="0" result="BackgroundImageFix"/>
<feColorMatrix in="SourceAlpha" type="matrix" values="0 0 0 0 0 0 0 0 0 0 0 0 0 0 0 0 0 0 127 0" result="hardAlpha"/>
<feOffset dy="1.2032"/>
<feGaussianBlur stdDeviation="0.601599"/>
<feComposite in2="hardAlpha" operator="out"/>
<feColorMatrix type="matrix" values="0 0 0 0 0 0 0 0 0 0 0 0 0 0 0 0 0 0 0.14 0"/>
<feBlend mode="normal" in2="BackgroundImageFix" result="effect1_dropShadow_922_13440"/>
<feBlend mode="normal" in="SourceGraphic" in2="effect1_dropShadow_922_13440" result="shape"/>
</filter>
<filter id="filter1_iii_922_13440" x="1.3984" y="2.3984" width="153.203" height="79.2032" filterUnits="userSpaceOnUse" color-interpolation-filters="sRGB">
<feFlood flood-opacity="0" result="BackgroundImageFix"/>
<feBlend mode="normal" in="SourceGraphic" in2="BackgroundImageFix" result="shape"/>
<feColorMatrix in="SourceAlpha" type="matrix" values="0 0 0 0 0 0 0 0 0 0 0 0 0 0 0 0 0 0 127 0" result="hardAlpha"/>
<feOffset dx="2.00075" dy="2.50093"/>
<feGaussianBlur stdDeviation="0.300799"/>
<feComposite in2="hardAlpha" operator="arithmetic" k2="-1" k3="1"/>
<feColorMatrix type="matrix" values="0 0 0 0 0 0 0 0 0 0 0 0 0 0 0 0 0 0 0.14 0"/>
<feBlend mode="normal" in2="shape" result="effect1_innerShadow_922_13440"/>
<feColorMatrix in="SourceAlpha" type="matrix" values="0 0 0 0 0 0 0 0 0 0 0 0 0 0 0 0 0 0 127 0" result="hardAlpha"/>
<feOffset dx="-2.50093" dy="2.40089"/>
<feGaussianBlur stdDeviation="0.300799"/>
<feComposite in2="hardAlpha" operator="arithmetic" k2="-1" k3="1"/>
<feColorMatrix type="matrix" values="0 0 0 0 0 0 0 0 0 0 0 0 0 0 0 0 0 0 0.14 0"/>
<feBlend mode="normal" in2="effect1_innerShadow_922_13440" result="effect2_innerShadow_922_13440"/>
<feColorMatrix in="SourceAlpha" type="matrix" values="0 0 0 0 0 0 0 0 0 0 0 0 0 0 0 0 0 0 127 0" result="hardAlpha"/>
<feOffset dy="-0.601599"/>
<feGaussianBlur stdDeviation="6.01599"/>
<feComposite in2="hardAlpha" operator="arithmetic" k2="-1" k3="1"/>
<feColorMatrix type="matrix" values="0 0 0 0 0 0 0 0 0 0 0 0 0 0 0 0 0 0 0.04 0"/>
<feBlend mode="normal" in2="effect2_innerShadow_922_13440" result="effect3_innerShadow_922_13440"/>
</filter>
<filter id="filter2_ii_922_13440" x="0.637088" y="-0.36102" width="154.863" height="83.8624" filterUnits="userSpaceOnUse" color-interpolation-filters="sRGB">
<feFlood flood-opacity="0" result="BackgroundImageFix"/>
<feBlend mode="normal" in="SourceGraphic" in2="BackgroundImageFix" result="shape"/>
<feColorMatrix in="SourceAlpha" type="matrix" values="0 0 0 0 0 0 0 0 0 0 0 0 0 0 0 0 0 0 127 0" result="hardAlpha"/>
<feOffset dx="-0.360959" dy="-0.360959"/>
<feGaussianBlur stdDeviation="0.18048"/>
<feComposite in2="hardAlpha" operator="arithmetic" k2="-1" k3="1"/>
<feColorMatrix type="matrix" values="0 0 0 0 0 0 0 0 0 0 0 0 0 0 0 0 0 0 0.14 0"/>
<feBlend mode="normal" in2="shape" result="effect1_innerShadow_922_13440"/>
<feColorMatrix in="SourceAlpha" type="matrix" values="0 0 0 0 0 0 0 0 0 0 0 0 0 0 0 0 0 0 127 0" result="hardAlpha"/>
<feOffset dx="0.500186" dy="0.500186"/>
<feGaussianBlur stdDeviation="0.250093"/>
<feComposite in2="hardAlpha" operator="arithmetic" k2="-1" k3="1"/>
<feColorMatrix type="matrix" values="0 0 0 0 1 0 0 0 0 1 0 0 0 0 1 0 0 0 0.25 0"/>
<feBlend mode="normal" in2="effect1_innerShadow_922_13440" result="effect2_innerShadow_922_13440"/>
</filter>
<linearGradient id="paint0_linear_922_13440" x1="78.6032" y1="3" x2="101.891" y2="110.451" gradientUnits="userSpaceOnUse">
<stop stop-color="white"/>
<stop offset="1" stop-color="#FFF2E8"/>
</linearGradient>
<linearGradient id="paint1_linear_922_13440" x1="78.5023" y1="-2.84127" x2="78.499" y2="82.2064" gradientUnits="userSpaceOnUse">
<stop stop-color="#060D24"/>
<stop offset="0.3461" stop-color="#243348"/>
</linearGradient>
<linearGradient id="paint2_linear_922_13440" x1="60.2289" y1="-2.50484" x2="100.248" y2="147.815" gradientUnits="userSpaceOnUse">
<stop stop-color="#FFBF44"/>
<stop offset="1" stop-color="#E38D5E"/>
</linearGradient>
</defs>
</svg>
