<svg width="156" height="85" viewBox="0 0 156 85" fill="none" xmlns="http://www.w3.org/2000/svg">
<g filter="url(#filter0_d_922_13418)">
<g filter="url(#filter1_iii_922_13418)">
<path d="M88.8571 3H67.746L2 81H78H154L88.8571 3Z" fill="url(#paint0_linear_922_13418)"/>
</g>
<path d="M51.9625 41.4095C60.9049 31.1076 71.9919 13.5338 75.0267 8.07983C75.0267 8.07983 57.425 33.5316 48.3207 44.4395C39.2164 55.3474 21.0078 74.7392 21.0078 74.7392C25.4588 70.0932 36.1817 59.5893 51.9625 41.4095Z" fill="#DEE2E6"/>
<path d="M107.494 44.4613C115.684 55.2267 130.494 69.5491 135.172 73.6002C135.172 73.6002 114.034 51.3594 105.288 40.3139C96.5434 29.2684 81.404 7.6698 81.404 7.6698C85.0134 12.9303 93.0407 25.4635 107.494 44.4613Z" fill="#DEE2E6"/>
<path d="M69.0249 10.0999L9.00391 81.8091H10.2165L69.0249 10.0999Z" fill="#DEE2E6"/>
<path d="M86.0298 10.0999L146.051 81.8091H144.838L86.0298 10.0999Z" fill="#DEE2E6"/>
<path d="M71.0246 10.0999L12.0039 81.8091H12.6062L71.0246 10.0999Z" fill="#DEE2E6"/>
<path d="M88.0301 10.0999L147.051 81.8091H146.449L88.0301 10.0999Z" fill="#DEE2E6"/>
<path d="M23.0081 67.6693L11.0039 81.8091H11.6041L23.0081 67.6693Z" fill="#DEE2E6"/>
<path d="M73.0247 9.08984L47.0156 43.4295C47.8221 42.8163 50.7658 38.7691 56.0886 32.3918C61.4114 26.0144 69.5972 14.6087 73.0247 9.08984Z" fill="#DEE2E6"/>
</g>
<path d="M15 81C15 81 38.0461 61.6984 53.3396 43C65.9067 27.6351 74.6755 11.8629 77.4026 6.72761C77.7855 6.00665 78.83 5.9977 79.2202 6.71471C82.0637 11.9396 91.2801 28.2783 103.66 44.2063C118.663 63.5079 142 81 142 81L15 81Z" fill="url(#paint1_linear_922_13418)"/>
<g filter="url(#filter2_ii_922_13418)">
<path fill-rule="evenodd" clip-rule="evenodd" d="M63.0212 2.52497C63.0212 1.13047 64.1517 0 65.5462 0H89.5064C90.9009 0 92.0314 1.13047 92.0314 2.52497C92.0314 3.05687 91.8669 3.55035 91.5861 3.95734L154.44 78.8757C155.331 79.938 155.193 81.5218 154.131 82.4132C153.068 83.3046 151.485 83.1661 150.594 82.1038L85.948 5.04995H70.1046L5.45922 82.1038C4.56799 83.1661 2.98444 83.3046 1.92228 82.4132C0.860113 81.5218 0.721548 79.938 1.61278 78.8757L63.9961 4.51824C63.4028 4.05621 63.0212 3.33516 63.0212 2.52497Z" fill="url(#paint2_linear_922_13418)"/>
</g>
<defs>
<filter id="filter0_d_922_13418" x="0.797251" y="3" width="154.405" height="81.2146" filterUnits="userSpaceOnUse" color-interpolation-filters="sRGB">
<feFlood flood-opacity="0" result="BackgroundImageFix"/>
<feColorMatrix in="SourceAlpha" type="matrix" values="0 0 0 0 0 0 0 0 0 0 0 0 0 0 0 0 0 0 127 0" result="hardAlpha"/>
<feOffset dy="1.20275"/>
<feGaussianBlur stdDeviation="0.601375"/>
<feComposite in2="hardAlpha" operator="out"/>
<feColorMatrix type="matrix" values="0 0 0 0 0 0 0 0 0 0 0 0 0 0 0 0 0 0 0.14 0"/>
<feBlend mode="normal" in2="BackgroundImageFix" result="effect1_dropShadow_922_13418"/>
<feBlend mode="normal" in="SourceGraphic" in2="effect1_dropShadow_922_13418" result="shape"/>
</filter>
<filter id="filter1_iii_922_13418" x="1.39863" y="2.39863" width="153.203" height="79.2027" filterUnits="userSpaceOnUse" color-interpolation-filters="sRGB">
<feFlood flood-opacity="0" result="BackgroundImageFix"/>
<feBlend mode="normal" in="SourceGraphic" in2="BackgroundImageFix" result="shape"/>
<feColorMatrix in="SourceAlpha" type="matrix" values="0 0 0 0 0 0 0 0 0 0 0 0 0 0 0 0 0 0 127 0" result="hardAlpha"/>
<feOffset dx="2" dy="2.5"/>
<feGaussianBlur stdDeviation="0.300687"/>
<feComposite in2="hardAlpha" operator="arithmetic" k2="-1" k3="1"/>
<feColorMatrix type="matrix" values="0 0 0 0 0 0 0 0 0 0 0 0 0 0 0 0 0 0 0.14 0"/>
<feBlend mode="normal" in2="shape" result="effect1_innerShadow_922_13418"/>
<feColorMatrix in="SourceAlpha" type="matrix" values="0 0 0 0 0 0 0 0 0 0 0 0 0 0 0 0 0 0 127 0" result="hardAlpha"/>
<feOffset dx="-2.5" dy="2.4"/>
<feGaussianBlur stdDeviation="0.300687"/>
<feComposite in2="hardAlpha" operator="arithmetic" k2="-1" k3="1"/>
<feColorMatrix type="matrix" values="0 0 0 0 0 0 0 0 0 0 0 0 0 0 0 0 0 0 0.14 0"/>
<feBlend mode="normal" in2="effect1_innerShadow_922_13418" result="effect2_innerShadow_922_13418"/>
<feColorMatrix in="SourceAlpha" type="matrix" values="0 0 0 0 0 0 0 0 0 0 0 0 0 0 0 0 0 0 127 0" result="hardAlpha"/>
<feOffset dy="-0.601375"/>
<feGaussianBlur stdDeviation="6.01375"/>
<feComposite in2="hardAlpha" operator="arithmetic" k2="-1" k3="1"/>
<feColorMatrix type="matrix" values="0 0 0 0 0 0 0 0 0 0 0 0 0 0 0 0 0 0 0.04 0"/>
<feBlend mode="normal" in2="effect2_innerShadow_922_13418" result="effect3_innerShadow_922_13418"/>
</filter>
<filter id="filter2_ii_922_13418" x="0.664566" y="-0.360825" width="154.863" height="83.8616" filterUnits="userSpaceOnUse" color-interpolation-filters="sRGB">
<feFlood flood-opacity="0" result="BackgroundImageFix"/>
<feBlend mode="normal" in="SourceGraphic" in2="BackgroundImageFix" result="shape"/>
<feColorMatrix in="SourceAlpha" type="matrix" values="0 0 0 0 0 0 0 0 0 0 0 0 0 0 0 0 0 0 127 0" result="hardAlpha"/>
<feOffset dx="-0.360825" dy="-0.360825"/>
<feGaussianBlur stdDeviation="0.180412"/>
<feComposite in2="hardAlpha" operator="arithmetic" k2="-1" k3="1"/>
<feColorMatrix type="matrix" values="0 0 0 0 0 0 0 0 0 0 0 0 0 0 0 0 0 0 0.14 0"/>
<feBlend mode="normal" in2="shape" result="effect1_innerShadow_922_13418"/>
<feColorMatrix in="SourceAlpha" type="matrix" values="0 0 0 0 0 0 0 0 0 0 0 0 0 0 0 0 0 0 127 0" result="hardAlpha"/>
<feOffset dx="0.5" dy="0.5"/>
<feGaussianBlur stdDeviation="0.25"/>
<feComposite in2="hardAlpha" operator="arithmetic" k2="-1" k3="1"/>
<feColorMatrix type="matrix" values="0 0 0 0 1 0 0 0 0 1 0 0 0 0 1 0 0 0 0.25 0"/>
<feBlend mode="normal" in2="effect1_innerShadow_922_13418" result="effect2_innerShadow_922_13418"/>
</filter>
<linearGradient id="paint0_linear_922_13418" x1="78.6032" y1="3" x2="101.891" y2="110.451" gradientUnits="userSpaceOnUse">
<stop stop-color="white"/>
<stop offset="1" stop-color="#FFF2E8"/>
</linearGradient>
<linearGradient id="paint1_linear_922_13418" x1="78.5023" y1="-2.84127" x2="78.499" y2="82.2064" gradientUnits="userSpaceOnUse">
<stop stop-color="#060D24"/>
<stop offset="0.3461" stop-color="#243348"/>
</linearGradient>
<linearGradient id="paint2_linear_922_13418" x1="60.3091" y1="-2.51649" x2="100.781" y2="148.353" gradientUnits="userSpaceOnUse">
<stop stop-color="#5A8DED"/>
<stop offset="1" stop-color="#647EB1"/>
</linearGradient>
</defs>
</svg>
