<svg xmlns="http://www.w3.org/2000/svg" width="100" height="100" viewBox="0 0 100 100" fill="none">
<ellipse cx="56.3888" cy="61.2206" rx="47.8192" ry="26.677" transform="rotate(-36.1824 56.3888 61.2206)" fill="#DEE2E6"/>
<path d="M5.94992 76.047L18.8775 60.1135L70.3784 65.56L72.221 70.4441L56.0096 89.6128C48.6607 87.7172 32.8801 88.5454 25.9085 89.1964C18.4059 82.1992 10.5776 77.7306 5.94992 76.047Z" fill="#CED4DA" stroke="#ADB5BD" stroke-width="1.5" stroke-linecap="round" stroke-linejoin="round"/>
<path d="M28.16 85.5316L33.5916 77.1353" stroke="#ADB5BD" stroke-width="1.5" stroke-linecap="round" stroke-linejoin="round"/>
<path d="M24.8208 80.7512C23.3984 79.5134 19.621 76.6014 15.8911 74.8555" stroke="#ADB5BD" stroke-width="1.5" stroke-linecap="round" stroke-linejoin="round"/>
<path d="M27.0728 77.0863C25.6504 75.8485 23.8723 74.3013 21.2744 72.978" stroke="#ADB5BD" stroke-width="1.5" stroke-linecap="round" stroke-linejoin="round"/>
<path d="M8.66436 39.6854L4.66358 40.8835L10.7328 61.8892L14.2648 67.924L15.4168 67.5039L15.4953 61.9933L8.66436 39.6854Z" fill="#CED4DA" stroke="#ADB5BD" stroke-width="1.5" stroke-linecap="round" stroke-linejoin="round"/>
<path d="M14.8821 47.2703C12.0312 50.5465 12.7923 56.7603 13.5293 59.4576L17.7385 64.6624L21.8338 68.226C24.9413 70.7588 34.454 75.8153 47.6443 75.7792C60.8346 75.743 68.0783 69.2301 70.0513 65.9782C69.3279 68.2272 70.3171 69.8076 70.9022 70.3167C73.8274 72.8622 78.4092 67.5968 79.8225 64.2005C80.9532 61.4834 82.6693 60.3382 83.3861 60.1052C92.6636 51.2157 91.1517 45.2739 90.9239 41.9916C90.7416 39.3657 90.9341 36.8603 91.0532 35.9359C92.5551 33.8161 95.0606 28.7315 93.0669 25.3518C91.0733 21.9721 88.2244 24.2221 87.0492 25.7695C85.2182 23.1482 80.0653 17.0194 74.1024 13.4755C66.6488 9.04565 53.4433 8.86296 40.2604 16.9242C29.7141 23.3732 23.1315 31.4893 21.1584 34.7412C20.2542 37.5525 17.7329 43.9941 14.8821 47.2703Z" fill="#E9ECEF"/>
<path d="M8.38617 54.8198C7.40082 58.7426 10.752 60.1179 14.859 58.8375L12.2986 52.1842C11.405 51.4283 9.37152 50.897 8.38617 54.8198Z" fill="#E9ECEF"/>
<path d="M12.5753 51.4487C11.0809 51.6457 7.2998 53.2537 7.82244 56.4044C8.47575 60.3429 12.3519 60.2344 14.111 59.3318" stroke="#ADB5BD" stroke-width="1.5" stroke-linecap="round"/>
<path d="M88.9942 30.0319C86.3502 23.619 77.7571 10.6929 64.5364 10.2914C48.0106 9.78954 39.9199 15.8625 31.4161 24.1343C24.722 30.6457 21.6801 34.3383 21.2343 35.8351C20.8012 37.5143 19.1158 40.1599 18.3317 41.5336C17.5475 42.9073 15.0264 46.7104 13.8638 48.4402C10.4521 54.7237 13.5519 67.7013 34.9099 74.4641C57.6554 79.0418 67.8148 70.714 70.0512 65.978C69.6308 67.8395 69.6651 71.5017 73.1663 71.2587C77.5428 70.9549 79.8604 64.7473 80.8026 62.4831C81.7448 60.2189 87.1396 58.745 89.3812 51.4433C91.6228 44.1416 90.3008 40.9352 90.658 38.1619C91.0152 35.3886 93.0515 33.0484 93.5226 31.9163C93.9937 30.7842 96.4632 26.7649 92.4059 23.7483C91.4435 23.0822 89.0248 22.5538 87.0492 25.7693" stroke="#ADB5BD" stroke-width="1.5" stroke-linecap="round" stroke-linejoin="round"/>
<path d="M29.3713 50.1122L32.3878 46.0549" stroke="#ADB5BD" stroke-width="1.5" stroke-linecap="round"/>
<path d="M34.4469 51.9585L36.3313 47.4301" stroke="#ADB5BD" stroke-width="1.5" stroke-linecap="round"/>
<path d="M39.6895 48.2964L40.0312 53.22" stroke="#ADB5BD" stroke-width="1.5" stroke-linecap="round"/>
<path d="M23.4376 27.9866C19.9972 29.105 20.5603 34.0498 21.272 36.3825L30.4201 33.5486C29.5261 31.2286 26.8781 26.8683 23.4376 27.9866Z" fill="#E9ECEF"/>
<path d="M21.2343 35.8354C20.5304 33.4318 19.8856 29.7122 23.6466 28.1898C27.4075 26.6674 29.5309 31.0472 30.4129 33.4385" stroke="#ADB5BD" stroke-width="1.5" stroke-linecap="round"/>
<path d="M26.6607 35.0461L24.4861 35.9087C24.1452 36.0439 23.7516 35.9956 23.5677 35.6783C22.9745 34.6556 22.6145 32.4046 23.6665 31.2279C25.2373 29.471 26.6297 31.9179 27.2752 33.784C27.4536 34.2999 27.1681 34.8448 26.6607 35.0461Z" fill="#CED4DA"/>
<path d="M53.3437 39.1034C56.7718 36.4247 59.8689 33.1535 62.7052 36.0128C63.7274 37.0433 65.4683 40.0427 61.9235 44.8503" stroke="#ADB5BD" stroke-width="1.5" stroke-linecap="round"/>
<path d="M58.3901 43.2944L56.5348 41.2371C56.3312 41.0113 56.2224 40.7062 56.3391 40.4254C56.8645 39.162 58.9119 37.2596 60.4095 37.7776C62.6642 38.5574 61.277 41.4399 59.9606 43.252C59.5794 43.7768 58.8245 43.7761 58.3901 43.2944Z" fill="#CED4DA"/>
<path d="M22.5859 63.2266C23.6347 65.1359 26.4531 68.2559 29.3374 65.4608C29.8391 67.4082 31.9216 71.0118 36.2383 69.8471" stroke="#ADB5BD" stroke-width="1.5" stroke-linecap="round" stroke-linejoin="round"/>
<mask id="path-20-inside-1_2271_22513" fill="white">
<ellipse cx="25.4507" cy="56.9808" rx="1.09676" ry="1.64514" transform="rotate(-3.97105 25.4507 56.9808)"/>
</mask>
<ellipse cx="25.4507" cy="56.9808" rx="1.09676" ry="1.64514" transform="rotate(-3.97105 25.4507 56.9808)" fill="#D9D9D9"/>
<path d="M25.0485 57.0087C25.0623 57.2077 25.0136 57.324 25.0023 57.3439C24.9984 57.3506 25.0204 57.3084 25.0922 57.2555C25.1702 57.1981 25.2973 57.1369 25.4608 57.1256L25.6685 60.1184C26.6267 60.0518 27.2705 59.4218 27.6077 58.8312C27.9511 58.2296 28.0904 57.5084 28.0413 56.8009L25.0485 57.0087ZM25.4608 57.1256C25.6242 57.1142 25.7586 57.1573 25.8438 57.2033C25.9223 57.2458 25.9498 57.2846 25.9451 57.2785C25.9311 57.2604 25.8668 57.1518 25.853 56.9528L22.8602 57.1606C22.9093 57.868 23.1469 58.5631 23.5702 59.1115C23.9857 59.6499 24.7104 60.1849 25.6685 60.1184L25.4608 57.1256ZM25.853 56.9528C25.8392 56.7539 25.8879 56.6375 25.8992 56.6176C25.903 56.6109 25.8811 56.6531 25.8092 56.706C25.7313 56.7634 25.6041 56.8246 25.4407 56.836L25.2329 53.8432C24.2748 53.9097 23.631 54.5397 23.2938 55.1304C22.9504 55.732 22.8111 56.4532 22.8602 57.1606L25.853 56.9528ZM25.4407 56.836C25.2772 56.8473 25.1429 56.8043 25.0577 56.7582C24.9792 56.7157 24.9517 56.6769 24.9564 56.683C24.9704 56.7012 25.0346 56.8097 25.0485 57.0087L28.0413 56.8009C27.9921 56.0935 27.7545 55.3985 27.3313 54.8501C26.9158 54.3117 26.1911 53.7767 25.2329 53.8432L25.4407 56.836Z" fill="#ADB5BD" mask="url(#path-20-inside-1_2271_22513)"/>
<mask id="path-22-inside-2_2271_22513" fill="white">
<ellipse cx="37.8658" cy="61.616" rx="1.09676" ry="1.64514" transform="rotate(-3.97105 37.8658 61.616)"/>
</mask>
<ellipse cx="37.8658" cy="61.616" rx="1.09676" ry="1.64514" transform="rotate(-3.97105 37.8658 61.616)" fill="#D9D9D9"/>
<path d="M37.4635 61.6439C37.4773 61.8429 37.4286 61.9593 37.4173 61.9792C37.4135 61.9859 37.4354 61.9437 37.5073 61.8908C37.5852 61.8333 37.7124 61.7722 37.8758 61.7608L38.0836 64.7536C39.0417 64.6871 39.6855 64.0571 40.0227 63.4664C40.3661 62.8648 40.5054 62.1436 40.4563 61.4362L37.4635 61.6439ZM37.8758 61.7608C38.0393 61.7495 38.1736 61.7925 38.2588 61.8386C38.3373 61.8811 38.3648 61.9198 38.3601 61.9137C38.3461 61.8956 38.2819 61.7871 38.268 61.5881L35.2752 61.7958C35.3244 62.5033 35.562 63.1983 35.9852 63.7467C36.4008 64.2851 37.1255 64.8201 38.0836 64.7536L37.8758 61.7608ZM38.268 61.5881C38.2542 61.3891 38.3029 61.2727 38.3142 61.2528C38.3181 61.2462 38.2961 61.2883 38.2243 61.3413C38.1463 61.3987 38.0192 61.4599 37.8557 61.4712L37.648 58.4784C36.6898 58.5449 36.046 59.175 35.7088 59.7656C35.3654 60.3672 35.2261 61.0884 35.2752 61.7958L38.268 61.5881ZM37.8557 61.4712C37.6923 61.4826 37.5579 61.4395 37.4727 61.3934C37.3942 61.351 37.3667 61.3122 37.3714 61.3183C37.3854 61.3364 37.4497 61.445 37.4635 61.6439L40.4563 61.4362C40.4072 60.7288 40.1696 60.0337 39.7463 59.4853C39.3308 58.9469 38.6061 58.4119 37.648 58.4784L37.8557 61.4712Z" fill="#ADB5BD" mask="url(#path-22-inside-2_2271_22513)"/>
<circle cx="29.7356" cy="63.2797" r="1.64514" transform="rotate(-3.97105 29.7356 63.2797)" fill="#CED4DA"/>
<path d="M49.6008 41.4816C41.8893 45.4467 33.7958 42.5787 31.7713 38.4319C25.0032 26.7784 46.9597 18.8913 55.0141 26.4064C59.3389 30.4415 59.2401 36.5251 49.6008 41.4816Z" fill="#CED4DA" stroke="#ADB5BD" stroke-width="1.5" stroke-linecap="round"/>
<path d="M14.6187 18.2218C11.8938 17.2157 10.8142 19.869 11.0859 21.4278C9.59138 19.869 6.87427 19.0721 6.05908 22.0481C5.46385 24.2211 9.49318 26.7351 12.4512 27.6729C13.2497 27.9261 14.078 27.515 14.4259 26.753C15.8479 23.6382 17.021 19.1088 14.6187 18.2218Z" fill="#CED4DA"/>
<path d="M23.019 7.95659C21.0051 5.86329 18.8769 7.78056 18.442 9.30195C17.7764 7.24754 15.6784 5.346 13.6475 7.669C12.1646 9.36522 14.6951 13.3842 16.9485 15.5177C17.5568 16.0936 18.4814 16.0847 19.1267 15.5505C21.7642 13.3671 24.7944 9.80198 23.019 7.95659Z" fill="#CED4DA"/>
</svg>