<svg xmlns="http://www.w3.org/2000/svg" width="100" height="100" viewBox="0 0 100 100" fill="none">
<g id="img">
<ellipse id="shadow" cx="45.5" cy="88" rx="35.5" ry="5" fill="#DEE2E6"/>
<g id="bg">
<path id="모자" d="M48 13C40.8 14.2 36.3333 18.1667 35 20L37.5 23C45.1 18.2 57.3333 19.3333 62.5 20.5L64.5 17.5C60.5 14.7 54.8333 13.3333 52.5 13C53.1667 11.6667 54.1 8.39999 50.5 7.99999C46.9 7.59999 47.1667 11.3333 48 13Z" fill="#CED4DA"/>
<path id="몸" d="M79 89.4998C83 87.0998 79.6666 84.1665 77.5 82.9998C86.7 77.3998 88.3333 68.9998 88 65.4998C90 64.9998 90.5 61.4998 88.5 58.4998C86.9 56.0998 86.1666 52.8332 86 51.4998C89.6 38.6998 78.8333 28.8332 73 25.4998C74.2 20.2998 72.1666 17.9998 71 17.4998C65.8 15.0998 63.1666 19.1665 62.5 21.4998C53.3 18.2998 42 21.4998 37.5 23.4998C34 18.9998 32 17.4998 28 19.9998C24.8 21.9998 26.3333 26.4998 27.5 28.4998L21 35.9998C16.6 44.3998 17.5 52.8332 18.5 55.9998C15.5 64.4998 17.5 68.4998 18.5 72.9998C19.3 76.5998 23.8333 80.4998 26 81.9998C24.3333 83.8332 21.5 87.7998 23.5 88.9998C25.5 90.1998 31.3333 87.4998 34 85.9998C42.8 89.9998 61 87.9998 69 86.4998L79 89.4998Z" fill="#E9ECEF"/>
<path id="오른쪽_귀" d="M69.5 19.5C71.8549 20.1728 71.5455 22.3074 70.8919 23.7623C70.6936 24.2037 70.1731 24.3692 69.7237 24.1895L66.2166 22.7866C65.7944 22.6177 65.5306 22.1819 65.6634 21.747C66.067 20.4254 67.1738 18.8353 69.5 19.5Z" fill="#CED4DA"/>
<path id="왼쪽_귀" d="M30.3625 21.5C28.0047 22.1737 28.7698 25.0218 29.5679 26.7007C29.7892 27.1664 30.3522 27.3239 30.8133 27.0934L34.3672 25.3164C34.7464 25.1268 34.9698 24.7153 34.8276 24.3159C34.3124 22.8689 32.7468 20.8188 30.3625 21.5Z" fill="#CED4DA"/>
<path id="하트" d="M61 65.0001C59.4 64.6001 58 67.8334 57.5 69.5001C52.5 61.0001 41 65.0001 45.5 75.5001C49.4769 84.7793 60.1667 83 64 81.5001C72 70.0001 63 65.5001 61 65.0001Z" fill="#F1F3F5"/>
</g>
<g id="line">
<path id="Vector 681" d="M82 61.5001C84.8 66.3001 87.5 65.8335 88.5 65.0001C89.3333 64.3335 91 63.0001 89.5 60.5001C88.3 58.5001 86.5 55.0001 86 52.5001C88.4 36.5001 78.3333 27.8335 73 25.5001C73.8333 23.1668 74.4 18.2001 70 17.0001C65.6 15.8001 63.1667 19.1668 62.5 21.0001C53.3 17.8001 41.5 21.3335 37.5 23.0001C35 19.5001 31.5 17.0001 27.5 20.5001" stroke="#ADB5BD" stroke-width="1.5" stroke-linecap="round" stroke-linejoin="round"/>
<g id="팔">
<path id="오른쪽_팔" d="M87.9999 65.5C88.8332 72.5 83.5999 86.9 55.9999 88.5C28.3999 90.1 18.8332 77.1667 17.4999 70.5C16.8332 68.3333 16.0999 62.4 18.4999 56C16.4999 51.1667 16.2999 37.7 27.4999 28.5C26.1665 26.1667 24.9999 23 27.4999 20.5" stroke="#ADB5BD" stroke-width="1.5" stroke-linecap="round" stroke-linejoin="round"/>
<path id="왼쪽_팔" d="M26.6333 63C25.8753 65.0192 25.178 69.2308 28.4523 69.9231C31.7267 70.6154 32.8484 66.4616 33 64.2981" stroke="#ADB5BD" stroke-width="1.5" stroke-linecap="round"/>
</g>
<g id="모자_2">
<path id="모자_3" d="M35 19.5003C39.5 14.8336 51.4 8.3003 65 17.5003" stroke="#ADB5BD" stroke-width="1.5" stroke-linecap="round" stroke-linejoin="round"/>
<path id="모자_위" d="M48.2769 13.0001C47.0229 11.5297 45.5899 8.47862 49.8891 8.0375C54.1883 7.59639 53.5748 10.6621 52.5 12.5001" stroke="#ADB5BD" stroke-width="1.5" stroke-linecap="round" stroke-linejoin="round"/>
</g>
<g id="다리">
<path id="왼쪽_다리" d="M26.5 82.5C24.4931 84.0438 21.2923 86.2969 23.2672 88.7655C24.7492 90.618 30.9125 87.6981 34 86" stroke="#ADB5BD" stroke-width="1.5" stroke-linecap="round" stroke-linejoin="round"/>
<path id="오른쪽_ 다리" d="M77.5 83C79.5069 84.5438 82.1495 86.2969 80.1746 88.7655C78.6926 90.618 72.5876 88.1981 69.5 86.5" stroke="#ADB5BD" stroke-width="1.5" stroke-linecap="round" stroke-linejoin="round"/>
</g>
<g id="땀">
<path id="Vector 696" d="M13.5002 29.5002C12.1668 28.5002 10.0002 26.0002 12.0002 24.0002C14.0002 22.0002 16.8335 23.8336 18.0002 25.0002" stroke="#ADB5BD" stroke-width="1.5" stroke-linecap="round" stroke-linejoin="round"/>
<path id="Vector 697" d="M20.3107 21.3899C18.9774 20.3899 16.8107 17.8899 18.8107 15.8899C20.8107 13.8899 23.644 15.7232 24.8107 16.8899" stroke="#ADB5BD" stroke-width="1.5" stroke-linecap="round" stroke-linejoin="round"/>
<path id="Vector 699" d="M8.3107 19.3899C6.97737 18.3899 4.8107 15.8899 6.8107 13.8899C8.8107 11.8899 11.644 13.7232 12.8107 14.8899" stroke="#ADB5BD" stroke-width="1.5" stroke-linecap="round" stroke-linejoin="round"/>
<path id="Vector 698" d="M28.3107 13.3899C26.9774 12.3899 24.8107 9.88987 26.8107 7.88987C28.8107 5.88987 31.644 7.72321 32.8107 8.88987" stroke="#ADB5BD" stroke-width="1.5" stroke-linecap="round" stroke-linejoin="round"/>
<path id="Vector 700" d="M16.3107 11.3899C14.9774 10.3899 12.8107 7.88987 14.8107 5.88987C16.8107 3.88987 19.644 5.72321 20.8107 6.88987" stroke="#ADB5BD" stroke-width="1.5" stroke-linecap="round" stroke-linejoin="round"/>
</g>
<g id="얼굴">
<g id="입">
<path id="Vector 706" d="M54.658 47.7052L53.0337 48.6798C52.707 48.8758 52.52 49.2405 52.5517 49.6203L52.917 54.0035C52.9628 54.5538 53.4462 54.9628 53.9965 54.917L58.1568 54.5703C58.6435 54.5297 59.0297 54.1435 59.0703 53.6568L59.4275 49.3699C59.469 48.8715 59.1361 48.4191 58.6479 48.3106L55.3894 47.5865C55.1394 47.531 54.8776 47.5735 54.658 47.7052Z" fill="#CED4DA"/>
<path id="Vector 690" d="M48 48.2105C49.4483 49.0175 52.9241 49.9052 55.2414 47C56.3678 47.6725 59.2966 48.614 62 47" stroke="#ADB5BD" stroke-width="1.5" stroke-linecap="round" stroke-linejoin="round"/>
<path id="Vector 691" d="M52 49L53.25 55L59 54.5L59.4375 48" stroke="#ADB5BD" stroke-width="1.5" stroke-linecap="round" stroke-linejoin="round"/>
</g>
<circle id="코" cx="55" cy="45" r="1.5" fill="#CED4DA"/>
<g id="눈">
<circle id="Ellipse 558" cx="61" cy="41" r="1" fill="#ADB5BD"/>
<circle id="Ellipse 559" cx="47" cy="42" r="1" fill="#ADB5BD"/>
</g>
</g>
<g id="앞머리">
<path id="Vector 686" d="M48.5 27L47 33" stroke="#ADB5BD" stroke-width="1.5" stroke-linecap="round"/>
<path id="Vector 687" d="M52 26.5L53 33" stroke="#ADB5BD" stroke-width="1.5" stroke-linecap="round"/>
<path id="Vector 688" d="M55.5 26L58.5 32" stroke="#ADB5BD" stroke-width="1.5" stroke-linecap="round"/>
</g>
<g id="하트_2">
<path id="Vector 733" d="M68 78.5L63 82L66.5 77L67 73.5L66.5 70L65 67L62 64.5L64.5 64L68 65L71 68V73L68 78.5Z" fill="#CED4DA"/>
<path id="하트_3" d="M60.4353 65.5002C58.8795 66.6372 57.7808 68.2365 57.5 69.5003C55 63.0003 44.5 62.5003 44.5 70.5003C44.5 80.5003 53.5 83.0003 58.5 83.0003C60.0675 83.0003 61.5895 82.6211 63 81.9684M60.4353 65.5002C62.5727 63.9382 65.5729 63.2486 68.5 65.5002C73.8679 69.6294 69.6878 78.8736 63 81.9684M60.4353 65.5002C66 64.5002 71 74.0002 63 81.9684" stroke="#ADB5BD" stroke-width="1.5" stroke-linecap="round" stroke-linejoin="round"/>
</g>
</g>
</g>
</svg>