<svg width="16" height="18" viewBox="0 0 16 18" fill="none" xmlns="http://www.w3.org/2000/svg">
<g id="shape">
<path id="Vector" d="M8 17.125C12.1421 17.125 15.5 13.7671 15.5 9.625C15.5 5.48286 12.1421 2.125 8 2.125C3.85786 2.125 0.5 5.48286 0.5 9.625C0.5 13.7671 3.85786 17.125 8 17.125Z" fill="#FFA256"/>
<path id="Subtract" fill-rule="evenodd" clip-rule="evenodd" d="M5.5 3.375C5.5 4.75571 4.38071 5.875 3 5.875C2.71214 5.875 2.43565 5.82635 2.17829 5.73682C2.97518 4.546 4.12775 3.61333 5.48402 3.09076C5.49458 3.18405 5.5 3.27889 5.5 3.375ZM5.1734 2.13868C3.58583 2.73841 2.23905 3.82864 1.31793 5.22452C0.815423 4.76724 0.5 4.10796 0.5 3.375C0.5 1.99429 1.61929 0.875 3 0.875C3.93099 0.875 4.74312 1.38389 5.1734 2.13868Z" fill="#FFA256"/>
<path id="Subtract_2" fill-rule="evenodd" clip-rule="evenodd" d="M10.5 3.375C10.5 4.75571 11.6193 5.875 13 5.875C13.2879 5.875 13.5644 5.82635 13.8217 5.73682C13.0248 4.546 11.8722 3.61333 10.516 3.09076C10.5054 3.18405 10.5 3.27889 10.5 3.375ZM10.8266 2.13868C12.4142 2.73841 13.761 3.82864 14.6821 5.22452C15.1846 4.76724 15.5 4.10796 15.5 3.375C15.5 1.99429 14.3807 0.875 13 0.875C12.069 0.875 11.2569 1.38389 10.8266 2.13868Z" fill="#FFA256"/>
<path id="Vector_2" d="M8 5.875V9.625H11.75" stroke="white" stroke-linecap="round" stroke-linejoin="round"/>
</g>
</svg>
