<svg width="13" height="14" viewBox="0 0 13 14" fill="none" xmlns="http://www.w3.org/2000/svg">
<path d="M6.5 13.5C9.81371 13.5 12.5 10.8137 12.5 7.5C12.5 4.18629 9.81371 1.5 6.5 1.5C3.18629 1.5 0.5 4.18629 0.5 7.5C0.5 10.8137 3.18629 13.5 6.5 13.5Z" fill="#99ADC9"/>
<path fill-rule="evenodd" clip-rule="evenodd" d="M4.5 2.5C4.5 3.60457 3.60457 4.5 2.5 4.5C2.3063 4.5 2.11903 4.47246 1.94189 4.42109C2.56208 3.50473 3.45134 2.78536 4.49624 2.37641C4.49874 2.41729 4.5 2.4585 4.5 2.5ZM4.18613 1.42391C2.90951 1.91035 1.82571 2.78756 1.08093 3.90934C0.721856 3.5478 0.5 3.04981 0.5 2.5C0.5 1.39543 1.39543 0.5 2.5 0.5C3.20842 0.5 3.83081 0.868321 4.18613 1.42391Z" fill="#99ADC9"/>
<path fill-rule="evenodd" clip-rule="evenodd" d="M8.5 2.5C8.5 3.60457 9.39543 4.5 10.5 4.5C10.6937 4.5 10.881 4.47246 11.0581 4.42109C10.4379 3.50473 9.54866 2.78536 8.50376 2.37641C8.50126 2.41729 8.5 2.4585 8.5 2.5ZM8.81387 1.42391C10.0905 1.91035 11.1743 2.78756 11.9191 3.90934C12.2781 3.5478 12.5 3.04981 12.5 2.5C12.5 1.39543 11.6046 0.5 10.5 0.5C9.79158 0.5 9.16919 0.868321 8.81387 1.42391Z" fill="#99ADC9"/>
<path d="M6.5 4.5V7.5H9.5" stroke="white" stroke-linecap="round" stroke-linejoin="round"/>
</svg>
