<svg width="34" height="33" viewBox="0 0 34 33" fill="none" xmlns="http://www.w3.org/2000/svg">
<mask id="mask0_1679_12201" style="mask-type:alpha" maskUnits="userSpaceOnUse" x="0" y="0" width="34" height="33">
<path d="M17.0005 32.75C25.9751 32.75 33.2505 25.4746 33.2505 16.5C33.2505 7.52537 25.9751 0.25 17.0005 0.25C8.02586 0.25 0.750488 7.52537 0.750488 16.5C0.750488 25.4746 8.02586 32.75 17.0005 32.75Z" fill="#D9D9D9"/>
</mask>
<g mask="url(#mask0_1679_12201)">
<path d="M17.0005 32.75C25.9751 32.75 33.2505 25.4746 33.2505 16.5C33.2505 7.52537 25.9751 0.25 17.0005 0.25C8.02586 0.25 0.750488 7.52537 0.750488 16.5C0.750488 25.4746 8.02586 32.75 17.0005 32.75Z" fill="#CED4DA"/>
<path d="M17.0005 20.25C20.4523 20.25 23.2505 17.4518 23.2505 14C23.2505 10.5482 20.4523 7.75 17.0005 7.75C13.5487 7.75 10.7505 10.5482 10.7505 14C10.7505 17.4518 13.5487 20.25 17.0005 20.25Z" fill="#F1F3F5"/>
<path d="M17.0005 49C25.2848 49 32.0005 42.2843 32.0005 34C32.0005 25.7157 25.2848 19 17.0005 19C8.71622 19 2.00049 25.7157 2.00049 34C2.00049 42.2843 8.71622 49 17.0005 49Z" fill="#F1F3F5"/>
</g>
</svg>
