<svg xmlns="http://www.w3.org/2000/svg" width="232" height="211" viewBox="0 0 232 211" fill="none">
<path d="M0 16.5C0 7.66344 7.16344 0.5 16 0.5H216C224.837 0.5 232 7.66344 232 16.5V194.5C232 203.337 224.837 210.5 216 210.5H16C7.16344 210.5 0 203.337 0 194.5V16.5Z" fill="url(#paint0_linear_3405_34453)"/>
<path d="M36 113.5C36 109.082 39.5817 105.5 44 105.5H92C96.4183 105.5 100 109.082 100 113.5V157.5C100 161.918 96.4183 165.5 92 165.5H44C39.5817 165.5 36 161.918 36 157.5V113.5Z" fill="black" fill-opacity="0.5"/>
<path d="M45.664 125.724C45.664 123.356 46.384 121.148 47.6 119.228H48.896C47.52 121.116 46.72 123.34 46.72 125.724C46.72 128.108 47.52 130.332 48.896 132.22H47.6C46.384 130.3 45.664 128.092 45.664 125.724ZM51.2455 130.108C51.7575 130.108 52.0295 130.46 52.0295 130.892C52.0295 131.356 51.7575 131.708 51.2455 131.708C50.7175 131.708 50.4295 131.356 50.4295 130.892C50.4295 130.46 50.7175 130.108 51.2455 130.108ZM54.9643 130.108C55.4763 130.108 55.7483 130.46 55.7483 130.892C55.7483 131.356 55.4763 131.708 54.9643 131.708C54.4363 131.708 54.1483 131.356 54.1483 130.892C54.1483 130.46 54.4363 130.108 54.9643 130.108ZM58.683 130.108C59.195 130.108 59.467 130.46 59.467 130.892C59.467 131.356 59.195 131.708 58.683 131.708C58.155 131.708 57.867 131.356 57.867 130.892C57.867 130.46 58.155 130.108 58.683 130.108ZM64.8498 125.724C64.8498 128.092 64.1458 130.3 62.9298 132.22H61.6338C63.0098 130.332 63.7938 128.108 63.7938 125.724C63.7938 123.34 63.0098 121.116 61.6338 119.228H62.9298C64.1458 121.148 64.8498 123.356 64.8498 125.724Z" fill="#FF0004"/>
<path d="M44 149.5C44 145.634 47.134 142.5 51 142.5C54.866 142.5 58 145.634 58 149.5C58 153.366 54.866 156.5 51 156.5C47.134 156.5 44 153.366 44 149.5Z" fill="#343A40"/>
<path d="M50.8945 152.394V147.43H49.7325V146.786H51.6295V152.394H50.8945Z" fill="#868E96"/>
<path d="M62.64 146.52H64.6V145.45H65.36V146.52H67.31V147.14H65.36V147.3C65.36 148.38 66.23 149.35 67.51 149.73L67.15 150.33C66.15 150.01 65.38 149.35 65 148.5C64.62 149.43 63.81 150.14 62.78 150.49L62.41 149.89C63.69 149.5 64.6 148.47 64.6 147.3V147.14H62.64V146.52ZM63.71 154.11V151.08H69.18V154.11H63.71ZM64.45 153.5H68.43V151.69H64.45V153.5ZM68.42 150.67V145.49H69.18V147.71H70.48V148.36H69.18V150.67H68.42ZM72.9802 146.16C73.7802 146.16 74.4402 146.63 74.8202 147.45H77.0902V145.47H77.8402V154.25H77.0902V150.85H74.8602C74.5002 151.73 73.8202 152.25 72.9802 152.25C71.7102 152.25 70.8102 151.06 70.8102 149.2C70.8102 147.34 71.7102 146.16 72.9802 146.16ZM71.5202 149.2C71.5202 150.64 72.1202 151.58 72.9802 151.58C73.8302 151.58 74.4302 150.64 74.4302 149.2C74.4302 147.77 73.8302 146.84 72.9802 146.84C72.1202 146.84 71.5202 147.77 71.5202 149.2ZM75.0302 148.07C75.1202 148.41 75.1602 148.79 75.1602 149.2C75.1602 149.57 75.1202 149.91 75.0602 150.22H77.0902V148.07H75.0302ZM79.0505 146.38H83.7605V147.02H81.8105V148.18C81.8105 149.58 82.8205 151.13 84.0705 151.74L83.6305 152.34C82.6605 151.85 81.8305 150.81 81.4405 149.63C81.0405 150.91 80.1705 152.04 79.1905 152.56L78.7405 151.95C79.9705 151.34 81.0605 149.68 81.0605 148.18V147.02H79.0505V146.38ZM84.8305 154.25V145.48H85.5905V149.03H87.0405V149.68H85.5905V154.25H84.8305ZM90.5954 146.39V153.39H89.9054V147.14L89.1954 147.38L88.9654 146.72L89.9054 146.39H90.5954Z" fill="#868E96"/>
<path d="M122 98C117.306 98 113.5 101.806 113.5 106.5V164.5C113.5 169.194 117.306 173 122 173H188C192.694 173 196.5 169.194 196.5 164.5V106.5C196.5 101.806 192.694 98 188 98H122Z" fill="black" fill-opacity="0.5"/>
<path d="M122 98C117.306 98 113.5 101.806 113.5 106.5V164.5C113.5 169.194 117.306 173 122 173H188C192.694 173 196.5 169.194 196.5 164.5V106.5C196.5 101.806 192.694 98 188 98H122Z" stroke="#FCFFAF"/>
<path d="M128.08 124.28C128.08 121.24 128.98 118.4 130.54 115.92H133.04C131.28 118.36 130.24 121.22 130.24 124.28C130.24 127.34 131.28 130.2 133.04 132.64H130.54C128.98 130.16 128.08 127.32 128.08 124.28ZM136.18 129.38C137.04 129.38 137.52 129.98 137.52 130.72C137.52 131.48 137.04 132.08 136.18 132.08C135.3 132.08 134.82 131.48 134.82 130.72C134.82 129.98 135.3 129.38 136.18 129.38ZM141.344 129.38C142.204 129.38 142.684 129.98 142.684 130.72C142.684 131.48 142.204 132.08 141.344 132.08C140.464 132.08 139.984 131.48 139.984 130.72C139.984 129.98 140.464 129.38 141.344 129.38ZM146.508 129.38C147.368 129.38 147.848 129.98 147.848 130.72C147.848 131.48 147.368 132.08 146.508 132.08C145.628 132.08 145.148 131.48 145.148 130.72C145.148 129.98 145.628 129.38 146.508 129.38ZM155.592 124.28C155.592 127.32 154.692 130.16 153.132 132.64H150.632C152.392 130.2 153.432 127.34 153.432 124.28C153.432 121.22 152.392 118.36 150.632 115.92H153.132C154.692 118.4 155.592 121.24 155.592 124.28Z" fill="#FF0004"/>
<path d="M126 151.5C126 146.529 130.029 142.5 135 142.5C139.971 142.5 144 146.529 144 151.5C144 156.471 139.971 160.5 135 160.5C130.029 160.5 126 156.471 126 151.5Z" fill="#343A40"/>
<path d="M132.488 154.935V154.323L135.044 151.757C135.962 150.83 136.322 150.245 136.322 149.732C136.322 148.886 135.746 148.391 134.846 148.391C133.874 148.391 133.352 149.129 133.352 149.93H132.407C132.407 148.625 133.352 147.554 134.855 147.554C136.304 147.554 137.258 148.427 137.258 149.723C137.258 150.497 136.817 151.154 135.737 152.261L133.847 154.115H137.501V154.935H132.488Z" fill="#868E96"/>
<path d="M148.768 147.124H151.12V145.84H152.032V147.124H154.372V147.868H152.032V148.06C152.032 149.356 153.076 150.52 154.612 150.976L154.18 151.696C152.98 151.312 152.056 150.52 151.6 149.5C151.144 150.616 150.172 151.468 148.936 151.888L148.492 151.168C150.028 150.7 151.12 149.464 151.12 148.06V147.868H148.768V147.124ZM150.052 156.232V152.596H156.616V156.232H150.052ZM150.94 155.5H155.716V153.328H150.94V155.5ZM155.704 152.104V145.888H156.616V148.552H158.176V149.332H156.616V152.104H155.704ZM161.276 146.692C162.236 146.692 163.028 147.256 163.484 148.24H166.208V145.864H167.108V156.4H166.208V152.32H163.532C163.1 153.376 162.284 154 161.276 154C159.752 154 158.672 152.572 158.672 150.34C158.672 148.108 159.752 146.692 161.276 146.692ZM159.524 150.34C159.524 152.068 160.244 153.196 161.276 153.196C162.296 153.196 163.016 152.068 163.016 150.34C163.016 148.624 162.296 147.508 161.276 147.508C160.244 147.508 159.524 148.624 159.524 150.34ZM163.736 148.984C163.844 149.392 163.892 149.848 163.892 150.34C163.892 150.784 163.844 151.192 163.772 151.564H166.208V148.984H163.736ZM168.661 146.956H174.313V147.724H171.973V149.116C171.973 150.796 173.185 152.656 174.685 153.388L174.157 154.108C172.993 153.52 171.997 152.272 171.529 150.856C171.049 152.392 170.005 153.748 168.829 154.372L168.289 153.64C169.765 152.908 171.073 150.916 171.073 149.116V147.724H168.661V146.956ZM175.597 156.4V145.876H176.509V150.136H178.249V150.916H176.509V156.4H175.597ZM182.714 146.968V155.368H181.886V147.868L181.034 148.156L180.758 147.364L181.886 146.968H182.714Z" fill="#868E96"/>
<path d="M28 46.5C28 42.0817 31.5817 38.5 36 38.5H196C200.418 38.5 204 42.0817 204 46.5V70.5C204 74.9183 200.418 78.5 196 78.5H36C31.5817 78.5 28 74.9183 28 70.5V46.5Z" fill="#243348"/>
<path d="M45.2886 55.366L46.1566 52.538H46.9966L46.5346 55.366H45.2886ZM48.255 53.644H50.957V52.188H52.147V53.644H54.835V54.624H52.147V54.778C52.147 56.248 53.309 57.592 55.143 58.124L54.583 59.076C53.169 58.642 52.105 57.746 51.573 56.598C51.027 57.858 49.935 58.838 48.479 59.3L47.905 58.348C49.753 57.788 50.957 56.374 50.957 54.778V54.624H48.255V53.644ZM56.263 52.244H57.481V55.324H59.287V56.332H57.481V59.51H56.263V52.244ZM49.711 60.084H57.481V64.396H49.711V60.084ZM56.291 61.05H50.901V63.416H56.291V61.05ZM62.9314 53.168C64.0514 53.168 64.9754 53.826 65.5074 54.96H68.6014V52.216H69.7914V64.578H68.6014V59.832H65.5914C65.0594 61.064 64.1074 61.792 62.9314 61.792C61.1254 61.792 59.8514 60.112 59.8514 57.48C59.8514 54.834 61.1254 53.168 62.9314 53.168ZM62.9314 54.26C61.7834 54.26 60.9994 55.506 60.9994 57.48C60.9994 59.454 61.7834 60.714 62.9314 60.714C64.0794 60.714 64.8774 59.454 64.8774 57.48C64.8774 55.506 64.0794 54.26 62.9314 54.26ZM65.8434 55.954C65.9554 56.416 66.0114 56.92 66.0114 57.48C66.0114 57.97 65.9694 58.418 65.8854 58.838H68.6014V55.954H65.8434ZM71.6017 53.49H78.2657V54.498H75.5777V55.94C75.5777 57.886 76.9077 60.07 78.7277 60.924L78.0417 61.89C76.6697 61.218 75.5497 59.804 74.9897 58.18C74.4297 59.944 73.2677 61.498 71.8817 62.198L71.1677 61.232C72.9597 60.35 74.3877 58.026 74.3877 55.94V54.498H71.6017V53.49ZM79.6517 52.244H80.8697V57.186H82.8577V58.194H80.8697V64.564H79.6517V52.244ZM86.614 53.392V63.514H85.452V54.68L83.8 55.744L83.226 54.82L85.452 53.392H86.614ZM90.0998 52.552L89.2318 55.38H88.3918L88.8538 52.552H90.0998ZM100.164 52.23H101.382V59.202H100.164V52.23ZM92.0302 52.944H93.2342V57.298C95.2222 57.284 96.9722 57.158 98.8622 56.752L99.0442 57.76C97.0002 58.18 95.1662 58.32 93.0382 58.32H92.0302V52.944ZM93.3882 59.776H101.382V64.382H93.3882V59.776ZM100.192 60.756H94.5782V63.402H100.192V60.756ZM111.887 52.216H113.105V64.578H111.887V52.216ZM106.581 53.168C108.415 53.168 109.731 54.834 109.731 57.48C109.731 60.112 108.415 61.792 106.581 61.792C104.747 61.792 103.431 60.112 103.431 57.48C103.431 54.834 104.747 53.168 106.581 53.168ZM106.581 54.26C105.419 54.26 104.607 55.506 104.607 57.48C104.607 59.454 105.419 60.714 106.581 60.714C107.743 60.714 108.555 59.454 108.555 57.48C108.555 55.506 107.743 54.26 106.581 54.26ZM118.439 53.35H124.809V54.316H119.643V55.702H124.543V56.668H119.643V58.124H124.837V59.104H122.163V61.022C123.297 60.952 124.445 60.854 125.523 60.686L125.621 61.582C122.877 62.114 119.867 62.128 117.683 62.128L117.529 61.106C118.523 61.106 119.699 61.106 120.945 61.064V59.104H118.439V53.35ZM126.321 52.216H127.525V64.578H126.321V52.216ZM129.504 53.126H136.112V54.12H133.424V54.526C133.424 56.108 134.544 57.55 136.378 58.152L135.804 59.09C134.404 58.628 133.382 57.69 132.85 56.486C132.318 57.872 131.226 58.964 129.756 59.482L129.154 58.516C131.03 57.872 132.22 56.276 132.22 54.526V54.12H129.504V53.126ZM137.568 52.244H138.786V55.338H140.592V56.332H138.786V59.65H137.568V52.244ZM134.852 59.972C137.372 59.972 138.912 60.798 138.912 62.24C138.912 63.696 137.372 64.536 134.852 64.536C132.346 64.536 130.792 63.696 130.792 62.24C130.792 60.798 132.346 59.972 134.852 59.972ZM134.852 60.924C133.06 60.924 131.982 61.4 131.982 62.24C131.982 63.094 133.06 63.584 134.852 63.584C136.644 63.584 137.722 63.094 137.722 62.24C137.722 61.4 136.644 60.924 134.852 60.924ZM141.884 53.406H148.156V54.372H143.102V57.494H148.212V58.488H145.594V60.84C146.756 60.798 147.904 60.714 148.996 60.588L149.094 61.47C146.406 61.876 143.494 61.946 141.156 61.932L141.002 60.924C142.038 60.924 143.2 60.91 144.376 60.882V58.488H141.884V53.406ZM149.794 52.216H150.998V64.578H149.794V52.216ZM155.804 59.72H156.98V60.406C156.98 61.498 157.512 62.66 158.646 63.332C159.78 62.59 160.354 61.358 160.354 60.406V59.72H161.544V60.406C161.544 61.694 162.412 62.968 163.98 63.5L163.378 64.396C162.174 63.976 161.348 63.122 160.928 62.1C160.55 63.094 159.808 64.032 158.66 64.522C157.484 64.06 156.742 63.164 156.378 62.142C155.944 63.122 155.118 63.962 153.97 64.396L153.354 63.5C154.922 62.926 155.804 61.61 155.804 60.406V59.72ZM156.056 52.93C157.666 52.93 158.926 53.882 159.178 55.296H161.628V52.244H162.846V59.244H161.628V56.29H159.178C158.954 57.732 157.694 58.698 156.056 58.698C154.236 58.698 152.892 57.522 152.892 55.814C152.892 54.12 154.236 52.93 156.056 52.93ZM156.056 53.938C154.894 53.938 154.04 54.708 154.04 55.814C154.04 56.934 154.894 57.704 156.056 57.704C157.204 57.704 158.058 56.934 158.058 55.814C158.058 54.708 157.204 53.938 156.056 53.938ZM167.709 53.168C169.361 53.168 170.593 54.596 170.761 56.906H173.379V52.216H174.569V64.578H173.379V57.872H170.775C170.663 60.28 169.417 61.792 167.709 61.792C165.903 61.792 164.629 60.112 164.629 57.48C164.629 54.834 165.903 53.168 167.709 53.168ZM167.709 54.26C166.561 54.26 165.777 55.506 165.777 57.48C165.777 59.454 166.561 60.714 167.709 60.714C168.857 60.714 169.641 59.454 169.641 57.48C169.641 55.506 168.857 54.26 167.709 54.26ZM176.155 61.988H178.857V58.712C177.835 58.152 177.219 57.284 177.219 56.164C177.219 54.232 179.109 52.986 181.713 52.986C184.345 52.986 186.207 54.232 186.207 56.164C186.207 57.27 185.605 58.138 184.611 58.684V61.988H187.313V62.982H176.155V61.988ZM181.713 53.938C179.781 53.938 178.409 54.82 178.409 56.164C178.409 57.522 179.781 58.39 181.713 58.39C183.659 58.39 185.031 57.522 185.031 56.164C185.031 54.82 183.659 53.938 181.713 53.938ZM180.061 61.988H183.393V59.146C182.889 59.272 182.315 59.342 181.713 59.342C181.125 59.342 180.565 59.272 180.061 59.16V61.988Z" fill="#F1F3F5"/>
<defs>
<linearGradient id="paint0_linear_3405_34453" x1="116" y1="0.5" x2="116" y2="210.5" gradientUnits="userSpaceOnUse">
<stop stop-color="#212529"/>
<stop offset="1" stop-color="#060D24"/>
</linearGradient>
</defs>
</svg>