<svg xmlns="http://www.w3.org/2000/svg" width="20" height="20" viewBox="0 0 20 20" fill="none">
<g clip-path="url(#clip0_6389_14578)">
<path d="M4.89083 11.2872L2.20881 10.3501C1.3152 10.0378 1.31529 8.77405 2.20893 8.46194L17.0682 3.27238C17.7975 3.0177 18.5278 3.65077 18.3793 4.40879L16.0512 16.2874C15.9258 16.9273 15.2312 17.2779 14.6419 16.9988L10.4696 15.0226C10.0757 14.8361 9.60637 14.9261 9.30947 15.2452L7.66497 17.0124C7.07519 17.6462 6.01338 17.282 5.93681 16.4196L5.55707 12.1428C5.52233 11.7514 5.26169 11.4167 4.89083 11.2872Z" fill="#A6DAFF"/>
<mask id="mask0_6389_14578" style="mask-type:alpha" maskUnits="userSpaceOnUse" x="1" y="3" width="18" height="15">
<path d="M4.89083 11.2872L2.20881 10.3501C1.3152 10.0378 1.31529 8.77405 2.20893 8.46194L17.0682 3.27238C17.7975 3.0177 18.5278 3.65077 18.3793 4.40879L16.0512 16.2874C15.9258 16.9273 15.2312 17.2779 14.6419 16.9988L10.4696 15.0226C10.0757 14.8361 9.60637 14.9261 9.30947 15.2452L7.66497 17.0124C7.07519 17.6462 6.01338 17.282 5.93681 16.4196L5.55707 12.1428C5.52233 11.7514 5.26169 11.4167 4.89083 11.2872Z" fill="#4DB4FF"/>
</mask>
<g mask="url(#mask0_6389_14578)">
<path d="M3.00049 20L2.57471 20.4256C2.28393 20.7162 1.7965 20.4317 1.90653 20.0356L3.95823 12.6487C3.98486 12.5528 4.04629 12.4703 4.13051 12.4173L15.3623 5.3453C15.7478 5.10259 16.1744 5.58992 15.8828 5.93986L14.9996 6.99968L3.00049 20Z" fill="#4DB4FF"/>
</g>
</g>
<defs>
<clipPath id="clip0_6389_14578">
<rect width="20" height="20" fill="white"/>
</clipPath>
</defs>
</svg>