<svg xmlns="http://www.w3.org/2000/svg" width="232" height="210" viewBox="0 0 232 210" fill="none">
<path d="M0 16C0 7.16344 7.16344 0 16 0H216C224.837 0 232 7.16344 232 16V194C232 202.837 224.837 210 216 210H16C7.16344 210 0 202.837 0 194V16Z" fill="url(#paint0_linear_3949_35774)"/>
<path d="M29 42C29 37.5817 32.5817 34 37 34H195C199.418 34 203 37.5817 203 42V90C203 94.4183 199.418 98 195 98H37C32.5817 98 29 94.4183 29 90V42Z" fill="black" fill-opacity="0.5"/>
<path d="M53.196 48.388H54.12V56.2H53.196V53.14H51.408V52.372H53.196V51.148H51.408V50.38H53.196V48.388ZM45.528 53.812L46.872 53.8V49.996H45.804V49.228H51.336V49.996H50.268V53.68C50.748 53.656 51.228 53.608 51.672 53.56L51.732 54.244C49.704 54.568 47.328 54.592 45.624 54.592L45.528 53.812ZM47.412 58.648V55.564H48.324V57.892H54.396V58.648H47.412ZM47.748 53.788C48.288 53.776 48.84 53.764 49.392 53.74V49.996H47.748V53.788ZM55.8283 49.456H61.6963V50.224H59.2123V51.616C59.2123 53.404 60.5083 55.216 62.0323 55.888L61.5043 56.608C60.2923 56.044 59.2483 54.82 58.7563 53.368C58.2763 54.904 57.2203 56.26 56.0203 56.872L55.4923 56.14C56.9803 55.42 58.2883 53.44 58.2883 51.616V50.224H55.8283V49.456ZM63.1483 58.9V48.376H64.0603V58.9H63.1483ZM65.4566 53.284H74.9726V53.968H65.4566V53.284ZM66.5966 55.516V54.856H73.7726V57.064H67.5086V58.084H74.1086V58.732H66.6206V56.428H72.8846V55.516H66.5966ZM66.6686 49.348V48.7H73.7486V50.86H67.5806V51.796H73.9406V52.468H66.6926V50.224H72.8486V49.348H66.6686ZM77.9505 49.12H83.5785V49.876H81.2385V50.308C81.2385 51.724 82.2585 52.996 83.7825 53.548L83.3265 54.268C82.1505 53.848 81.2385 52.984 80.7945 51.892C80.3385 53.08 79.3905 54.016 78.1665 54.46L77.6745 53.752C79.2345 53.2 80.3265 51.832 80.3265 50.32V49.876H77.9505V49.12ZM79.0425 56.02V55.264H85.8585V58.9H84.9345V56.02H79.0425ZM84.9345 54.7V48.376H85.8585V51.16H87.4185V51.94H85.8585V54.7H84.9345ZM90.3867 48.976H91.2868V50.044C91.2868 51.532 92.3428 52.852 93.8668 53.38L93.3628 54.088C92.2108 53.668 91.3108 52.816 90.8548 51.724C90.4108 52.96 89.4508 53.932 88.1908 54.412L87.7108 53.668C89.2948 53.104 90.3867 51.688 90.3867 50.068V48.976ZM89.4028 56.884C89.4028 55.636 90.7348 54.904 92.8948 54.904C95.0548 54.904 96.3748 55.636 96.3748 56.884C96.3748 58.144 95.0548 58.864 92.8948 58.864C90.7348 58.864 89.4028 58.144 89.4028 56.884ZM90.3027 56.884C90.3027 57.664 91.2868 58.132 92.8948 58.132C94.4908 58.132 95.4748 57.664 95.4748 56.884C95.4748 56.104 94.4908 55.648 92.8948 55.648C91.2868 55.648 90.3027 56.104 90.3027 56.884ZM93.1108 51.388V50.62H95.4268V48.376H96.3388V54.604H95.4268V51.388H93.1108ZM104.839 48.376H105.739V52.72H107.479V53.488H105.739V58.9H104.839V48.376ZM97.627 50.824V50.068H100.291V48.508H101.227V50.068H103.831V50.824H97.627ZM98.239 54.112C98.239 52.696 99.307 51.712 100.771 51.712C102.247 51.712 103.327 52.696 103.327 54.112C103.327 55.54 102.247 56.512 100.771 56.512C99.307 56.512 98.239 55.54 98.239 54.112ZM99.103 54.112C99.103 55.072 99.811 55.756 100.771 55.756C101.743 55.756 102.463 55.072 102.463 54.112C102.463 53.164 101.743 52.468 100.771 52.468C99.811 52.468 99.103 53.164 99.103 54.112ZM108.683 49.456H116.015V50.476C116.015 51.796 116.015 53.224 115.631 55.348L114.719 55.228C115.103 53.224 115.103 51.76 115.103 50.476V50.2H108.683V49.456ZM107.675 57.388V56.644H111.395V52.876H112.307V56.644H117.167V57.388H107.675ZM122.569 54.856H123.445V55.444C123.445 56.368 123.949 57.364 124.933 57.94C125.941 57.316 126.457 56.236 126.457 55.444V54.856H127.357V55.444C127.357 56.512 128.137 57.604 129.469 58.06L129.013 58.732C127.969 58.36 127.237 57.628 126.889 56.74C126.565 57.592 125.929 58.408 124.957 58.828C123.949 58.432 123.301 57.664 122.989 56.788C122.617 57.628 121.897 58.36 120.901 58.732L120.445 58.06C121.765 57.568 122.569 56.44 122.569 55.444V54.856ZM120.169 51.448C120.169 50.008 121.321 49 122.893 49C124.477 49 125.629 50.008 125.629 51.448C125.629 52.888 124.477 53.884 122.893 53.884C121.321 53.884 120.169 52.888 120.169 51.448ZM121.057 51.448C121.057 52.444 121.837 53.128 122.893 53.128C123.973 53.128 124.741 52.444 124.741 51.448C124.741 50.464 123.973 49.768 122.893 49.768C121.837 49.768 121.057 50.464 121.057 51.448ZM127.597 54.4V48.388H128.521V54.4H127.597ZM132.726 49.192C134.154 49.192 135.198 50.428 135.33 52.408H137.658V48.364H138.558V58.9H137.658V53.152H135.33C135.234 55.204 134.178 56.5 132.726 56.5C131.201 56.5 130.122 55.072 130.122 52.84C130.122 50.608 131.201 49.192 132.726 49.192ZM130.974 52.84C130.974 54.568 131.694 55.696 132.726 55.696C133.746 55.696 134.454 54.568 134.454 52.84C134.454 51.124 133.746 50.008 132.726 50.008C131.694 50.008 130.974 51.124 130.974 52.84ZM139.906 56.776H142.258V53.92C141.37 53.452 140.842 52.696 140.842 51.76C140.842 50.116 142.426 49.06 144.646 49.06C146.878 49.06 148.462 50.116 148.462 51.76C148.462 52.696 147.934 53.44 147.058 53.908V56.776H149.422V57.544H139.906V56.776ZM141.718 51.76C141.718 52.936 142.954 53.716 144.646 53.716C146.35 53.716 147.562 52.936 147.562 51.76C147.562 50.572 146.35 49.78 144.646 49.78C142.954 49.78 141.718 50.572 141.718 51.76ZM143.158 56.776H146.146V54.256C145.69 54.376 145.186 54.436 144.646 54.436C144.106 54.436 143.602 54.376 143.158 54.256V56.776ZM153.036 56.956C153.42 56.956 153.624 57.22 153.624 57.544C153.624 57.892 153.42 58.156 153.036 58.156C152.64 58.156 152.424 57.892 152.424 57.544C152.424 57.22 152.64 56.956 153.036 56.956ZM155.7 56.956C156.084 56.956 156.288 57.22 156.288 57.544C156.288 57.892 156.084 58.156 155.7 58.156C155.304 58.156 155.088 57.892 155.088 57.544C155.088 57.22 155.304 56.956 155.7 56.956ZM158.364 56.956C158.748 56.956 158.952 57.22 158.952 57.544C158.952 57.892 158.748 58.156 158.364 58.156C157.968 58.156 157.752 57.892 157.752 57.544C157.752 57.22 157.968 56.956 158.364 56.956Z" fill="#ADB5BD"/>
<path d="M54.5 84.2188C58.435 84.2188 61.625 81.0288 61.625 77.0938C61.625 73.1587 58.435 69.9688 54.5 69.9688C50.565 69.9688 47.375 73.1587 47.375 77.0938C47.375 81.0288 50.565 84.2188 54.5 84.2188Z" fill="#FFA256"/>
<path fill-rule="evenodd" clip-rule="evenodd" d="M52.125 71.1562C52.125 72.4679 51.0617 73.5312 49.75 73.5312C49.5206 73.5312 49.2989 73.4987 49.089 73.4381C49.8252 72.3506 50.8806 71.4968 52.1207 71.0114C52.1235 71.0593 52.125 71.1076 52.125 71.1562ZM51.7513 69.8769C50.2353 70.4547 48.9482 71.4964 48.0636 72.8286C47.6379 72.3994 47.375 71.8085 47.375 71.1562C47.375 69.8446 48.4383 68.7812 49.75 68.7812C50.5906 68.7812 51.3292 69.218 51.7513 69.8769Z" fill="#FFA256"/>
<path fill-rule="evenodd" clip-rule="evenodd" d="M56.8745 71.1562C56.8745 72.4679 57.9378 73.5312 59.2495 73.5312C59.4789 73.5312 59.7007 73.4987 59.9105 73.4381C59.1743 72.3506 58.1189 71.4968 56.8789 71.0114C56.876 71.0593 56.8745 71.1076 56.8745 71.1562ZM57.2482 69.8769C58.7643 70.4547 60.0514 71.4964 60.9359 72.8286C61.3616 72.3994 61.6245 71.8085 61.6245 71.1562C61.6245 69.8446 60.5612 68.7812 59.2495 68.7812C58.4089 68.7812 57.6703 69.218 57.2482 69.8769Z" fill="#FFA256"/>
<path d="M54.5 73.5312V77.0938H58.0625" stroke="white" stroke-width="1.19101" stroke-linecap="round" stroke-linejoin="round"/>
<path d="M68.77 80.712C70.758 78.766 73.698 76.806 73.698 75C73.698 73.74 72.788 73.026 71.738 73.026C70.982 73.026 70.17 73.306 69.638 74.496L68.714 74.076C69.428 72.438 70.772 72.004 71.738 72.004C73.208 72.004 74.72 73.166 74.72 75C74.706 77.086 72.2 79.004 70.282 80.712H74.86V81.734H68.77V80.712ZM79.3722 80.922C80.9682 80.922 81.9482 79.648 81.9482 76.946C81.9482 74.244 80.9682 72.984 79.3722 72.984C77.7622 72.984 76.7822 74.244 76.7822 76.946C76.7822 79.648 77.7622 80.922 79.3722 80.922ZM75.7742 76.946C75.7742 73.824 77.2022 71.976 79.3722 71.976C81.5282 71.976 82.9562 73.824 82.9562 76.946C82.9562 80.068 81.5282 81.93 79.3722 81.93C77.2022 81.93 75.7742 80.068 75.7742 76.946ZM83.7338 80.586H88.7458V77.772H89.7958V80.586H94.8358V81.482H83.7338V80.586ZM84.3638 77.366C86.7018 76.988 88.7458 75.56 88.7458 73.628V73.614H84.7698V72.746H88.7458V71.052H89.7958V72.746H93.7718V73.614H89.8098V73.628C89.8098 75.56 91.8678 76.988 94.1918 77.366L93.7718 78.192C91.8258 77.842 90.0478 76.862 89.2778 75.336C88.5078 76.862 86.7298 77.842 84.7698 78.192L84.3638 77.366Z" fill="#FFA256"/>
<g clip-path="url(#clip0_3949_35774)">
<path d="M88.5683 143.659C70.9873 121.603 86.6928 89 114.899 89C142.964 89 158.712 121.318 141.417 143.421L119.873 170.955C117.46 174.039 112.8 174.06 110.359 170.998L88.5683 143.659Z" fill="#FCFFAF"/>
<rect x="85" y="92" width="60" height="60" rx="30" fill="#060D24"/>
<circle cx="115" cy="122" r="27" fill="#464444"/>
<circle cx="115" cy="122" r="27" fill="black" fill-opacity="0.8"/>
<g opacity="0.4">
<mask id="mask0_3949_35774" style="mask-type:alpha" maskUnits="userSpaceOnUse" x="88" y="95" width="54" height="54">
<path d="M115 149C129.912 149 142 136.912 142 122C142 107.088 129.912 95 115 95C100.088 95 88 107.088 88 122C88 136.912 100.088 149 115 149Z" fill="#D9D9D9"/>
</mask>
<g mask="url(#mask0_3949_35774)">
<path d="M115 149C129.912 149 142 136.912 142 122C142 107.088 129.912 95 115 95C100.088 95 88 107.088 88 122C88 136.912 100.088 149 115 149Z" fill="#CED4DA"/>
<path d="M115.5 128C121.299 128 126 123.299 126 117.5C126 111.701 121.299 107 115.5 107C109.701 107 105 111.701 105 117.5C105 123.299 109.701 128 115.5 128Z" fill="#E9ECEF"/>
<path d="M115 176C128.807 176 140 164.807 140 151C140 137.193 128.807 126 115 126C101.193 126 90 137.193 90 151C90 164.807 101.193 176 115 176Z" fill="#E9ECEF"/>
</g>
</g>
<path d="M97.9265 118.624H100.29V117.328H101.178V118.624H103.53V119.356H101.178V119.548C101.178 120.856 102.234 122.008 103.758 122.464L103.338 123.184C102.138 122.8 101.202 121.996 100.746 120.976C100.302 122.104 99.3185 122.968 98.0825 123.376L97.6505 122.668C99.1865 122.188 100.29 120.964 100.29 119.548V119.356H97.9265V118.624ZM104.862 117.376H105.762V120.052H107.334V120.808H105.762V123.592H104.862V117.376ZM99.1985 124.096H105.762V127.732H99.1985V124.096ZM104.874 124.816H100.074V127H104.874V124.816ZM110.399 118.192C111.359 118.192 112.151 118.756 112.595 119.74H115.343V117.364H116.231V127.888H115.343V123.808H112.655C112.223 124.876 111.407 125.5 110.399 125.5C108.875 125.5 107.795 124.072 107.795 121.84C107.795 119.608 108.875 118.192 110.399 118.192ZM110.399 118.996C109.367 118.996 108.647 120.124 108.647 121.84C108.647 123.556 109.367 124.696 110.399 124.696C111.443 124.696 112.163 123.556 112.163 121.84C112.163 120.124 111.443 118.996 110.399 118.996ZM112.847 120.484C112.955 120.892 113.003 121.348 113.003 121.84C113.003 122.284 112.955 122.692 112.883 123.064H115.343V120.484H112.847ZM117.807 118.456H123.459V119.212H121.107V120.628C121.107 122.296 122.331 124.168 123.831 124.876L123.315 125.596C122.139 125.008 121.143 123.76 120.675 122.356C120.195 123.88 119.139 125.236 117.975 125.848L117.447 125.14C118.911 124.408 120.231 122.416 120.231 120.628V119.212H117.807V118.456ZM124.755 117.376H125.655V121.648H127.395V122.404H125.655V127.876H124.755V117.376ZM132.641 118.348V127H131.777V119.332L130.433 120.268L129.953 119.608L131.777 118.348H132.641Z" fill="#F1F3F5"/>
<mask id="mask1_3949_35774" style="mask-type:alpha" maskUnits="userSpaceOnUse" x="88" y="95" width="54" height="54">
<path d="M88 149L88 95L115 95L115 122L142 122L142 149L88 149Z" fill="#D9D9D9"/>
</mask>
<g mask="url(#mask1_3949_35774)">
<path fill-rule="evenodd" clip-rule="evenodd" d="M115 149C129.912 149 142 136.912 142 122C142 107.088 129.912 95 115 95C100.088 95 88 107.088 88 122C88 136.912 100.088 149 115 149ZM114.5 145C126.926 145 137 134.926 137 122.5C137 110.074 126.926 100 114.5 100C102.074 100 92 110.074 92 122.5C92 134.926 102.074 145 114.5 145Z" fill="#F1F3F5"/>
</g>
</g>
<g filter="url(#filter0_d_3949_35774)">
<path d="M173.335 149.664L168.106 140.17C167.217 138.543 165.231 137.734 163.509 138.285C162.435 138.606 161.575 139.362 161.165 140.333C161.147 140.387 161.102 140.446 161.084 140.501C160.087 139.358 158.426 138.835 156.963 139.294C155.889 139.616 155.029 140.371 154.619 141.342C154.601 141.397 154.583 141.452 154.538 141.51C153.536 140.342 151.88 139.845 150.417 140.304C149.343 140.625 148.483 141.381 148.073 142.352C148.077 142.377 148.055 142.407 148.055 142.407L143.839 134.781C142.95 133.153 140.964 132.344 139.242 132.895C138.168 133.216 137.308 133.972 136.898 134.943C136.488 135.914 136.538 136.996 137.031 137.932L147.285 156.535L143.398 154.618C140.458 153.23 137.941 153.332 135.693 154.976C135.128 155.375 134.827 156.018 134.833 156.691C134.84 157.365 135.227 158.006 135.815 158.382L151.874 168.696C155.041 170.594 158.829 171.307 162.504 170.74C163.067 170.654 163.626 170.541 164.177 170.379C168.39 169.262 171.804 166.556 173.743 162.806C175.834 158.826 175.667 153.896 173.335 149.664Z" fill="#FFD662"/>
<path d="M152 149.5L148 142.5C148.242 142.5 149.018 143.033 150.182 145.167C151.345 147.3 151.879 148.944 152 149.5Z" fill="#EBBB30"/>
<path d="M159 148.5L155 141.5C155.242 141.5 156.018 142.033 157.182 144.167C158.345 146.3 158.879 147.944 159 148.5Z" fill="#EBBB30"/>
<path d="M165 147.5L161 140.5C161.242 140.5 162.018 141.033 163.182 143.167C164.345 145.3 164.879 146.944 165 147.5Z" fill="#EBBB30"/>
</g>
<defs>
<filter id="filter0_d_3949_35774" x="125.833" y="128.723" width="52.3716" height="50.2068" filterUnits="userSpaceOnUse" color-interpolation-filters="sRGB">
<feFlood flood-opacity="0" result="BackgroundImageFix"/>
<feColorMatrix in="SourceAlpha" type="matrix" values="0 0 0 0 0 0 0 0 0 0 0 0 0 0 0 0 0 0 127 0" result="hardAlpha"/>
<feOffset dx="-3" dy="2"/>
<feGaussianBlur stdDeviation="3"/>
<feComposite in2="hardAlpha" operator="out"/>
<feColorMatrix type="matrix" values="0 0 0 0 0 0 0 0 0 0 0 0 0 0 0 0 0 0 0.25 0"/>
<feBlend mode="normal" in2="BackgroundImageFix" result="effect1_dropShadow_3949_35774"/>
<feBlend mode="normal" in="SourceGraphic" in2="effect1_dropShadow_3949_35774" result="shape"/>
</filter>
<linearGradient id="paint0_linear_3949_35774" x1="116" y1="0" x2="116" y2="210" gradientUnits="userSpaceOnUse">
<stop stop-color="#212529"/>
<stop offset="1" stop-color="#060D24"/>
</linearGradient>
<clipPath id="clip0_3949_35774">
<rect width="88" height="95" fill="white" transform="translate(70 81)"/>
</clipPath>
</defs>
</svg>