<svg xmlns="http://www.w3.org/2000/svg" width="232" height="210" viewBox="0 0 232 210" fill="none">
<path d="M0 16C0 7.16344 7.16344 0 16 0H216C224.837 0 232 7.16344 232 16V194C232 202.837 224.837 210 216 210H16C7.16344 210 0 202.837 0 194V16Z" fill="url(#paint0_linear_3949_35776)"/>
<path d="M36 113C36 108.582 39.5817 105 44 105H92C96.4183 105 100 108.582 100 113V157C100 161.418 96.4183 165 92 165H44C39.5817 165 36 161.418 36 157V113Z" fill="black" fill-opacity="0.5"/>
<path d="M45.664 125.224C45.664 122.856 46.384 120.648 47.6 118.728H48.896C47.52 120.616 46.72 122.84 46.72 125.224C46.72 127.608 47.52 129.832 48.896 131.72H47.6C46.384 129.8 45.664 127.592 45.664 125.224ZM51.2455 129.608C51.7575 129.608 52.0295 129.96 52.0295 130.392C52.0295 130.856 51.7575 131.208 51.2455 131.208C50.7175 131.208 50.4295 130.856 50.4295 130.392C50.4295 129.96 50.7175 129.608 51.2455 129.608ZM54.9643 129.608C55.4763 129.608 55.7483 129.96 55.7483 130.392C55.7483 130.856 55.4763 131.208 54.9643 131.208C54.4363 131.208 54.1483 130.856 54.1483 130.392C54.1483 129.96 54.4363 129.608 54.9643 129.608ZM58.683 129.608C59.195 129.608 59.467 129.96 59.467 130.392C59.467 130.856 59.195 131.208 58.683 131.208C58.155 131.208 57.867 130.856 57.867 130.392C57.867 129.96 58.155 129.608 58.683 129.608ZM64.8498 125.224C64.8498 127.592 64.1458 129.8 62.9298 131.72H61.6338C63.0098 129.832 63.7938 127.608 63.7938 125.224C63.7938 122.84 63.0098 120.616 61.6338 118.728H62.9298C64.1458 120.648 64.8498 122.856 64.8498 125.224Z" fill="#FF0004"/>
<path d="M44 149C44 145.134 47.134 142 51 142C54.866 142 58 145.134 58 149C58 152.866 54.866 156 51 156C47.134 156 44 152.866 44 149Z" fill="#343A40"/>
<path d="M50.8945 151.894V146.93H49.7325V146.286H51.6295V151.894H50.8945Z" fill="#868E96"/>
<path d="M62.64 146.02H64.6V144.95H65.36V146.02H67.31V146.64H65.36V146.8C65.36 147.88 66.23 148.85 67.51 149.23L67.15 149.83C66.15 149.51 65.38 148.85 65 148C64.62 148.93 63.81 149.64 62.78 149.99L62.41 149.39C63.69 149 64.6 147.97 64.6 146.8V146.64H62.64V146.02ZM63.71 153.61V150.58H69.18V153.61H63.71ZM64.45 153H68.43V151.19H64.45V153ZM68.42 150.17V144.99H69.18V147.21H70.48V147.86H69.18V150.17H68.42ZM72.9802 145.66C73.7802 145.66 74.4402 146.13 74.8202 146.95H77.0902V144.97H77.8402V153.75H77.0902V150.35H74.8602C74.5002 151.23 73.8202 151.75 72.9802 151.75C71.7102 151.75 70.8102 150.56 70.8102 148.7C70.8102 146.84 71.7102 145.66 72.9802 145.66ZM71.5202 148.7C71.5202 150.14 72.1202 151.08 72.9802 151.08C73.8302 151.08 74.4302 150.14 74.4302 148.7C74.4302 147.27 73.8302 146.34 72.9802 146.34C72.1202 146.34 71.5202 147.27 71.5202 148.7ZM75.0302 147.57C75.1202 147.91 75.1602 148.29 75.1602 148.7C75.1602 149.07 75.1202 149.41 75.0602 149.72H77.0902V147.57H75.0302ZM79.0505 145.88H83.7605V146.52H81.8105V147.68C81.8105 149.08 82.8205 150.63 84.0705 151.24L83.6305 151.84C82.6605 151.35 81.8305 150.31 81.4405 149.13C81.0405 150.41 80.1705 151.54 79.1905 152.06L78.7405 151.45C79.9705 150.84 81.0605 149.18 81.0605 147.68V146.52H79.0505V145.88ZM84.8305 153.75V144.98H85.5905V148.53H87.0405V149.18H85.5905V153.75H84.8305ZM90.5954 145.89V152.89H89.9054V146.64L89.1954 146.88L88.9654 146.22L89.9054 145.89H90.5954Z" fill="#868E96"/>
<path d="M122 97.5C117.306 97.5 113.5 101.306 113.5 106V164C113.5 168.694 117.306 172.5 122 172.5H188C192.694 172.5 196.5 168.694 196.5 164V106C196.5 101.306 192.694 97.5 188 97.5H122Z" fill="black" fill-opacity="0.5"/>
<path d="M122 97.5C117.306 97.5 113.5 101.306 113.5 106V164C113.5 168.694 117.306 172.5 122 172.5H188C192.694 172.5 196.5 168.694 196.5 164V106C196.5 101.306 192.694 97.5 188 97.5H122Z" stroke="#FCFFAF"/>
<path d="M128.08 123.78C128.08 120.74 128.98 117.9 130.54 115.42H133.04C131.28 117.86 130.24 120.72 130.24 123.78C130.24 126.84 131.28 129.7 133.04 132.14H130.54C128.98 129.66 128.08 126.82 128.08 123.78ZM136.18 128.88C137.04 128.88 137.52 129.48 137.52 130.22C137.52 130.98 137.04 131.58 136.18 131.58C135.3 131.58 134.82 130.98 134.82 130.22C134.82 129.48 135.3 128.88 136.18 128.88ZM141.344 128.88C142.204 128.88 142.684 129.48 142.684 130.22C142.684 130.98 142.204 131.58 141.344 131.58C140.464 131.58 139.984 130.98 139.984 130.22C139.984 129.48 140.464 128.88 141.344 128.88ZM146.508 128.88C147.368 128.88 147.848 129.48 147.848 130.22C147.848 130.98 147.368 131.58 146.508 131.58C145.628 131.58 145.148 130.98 145.148 130.22C145.148 129.48 145.628 128.88 146.508 128.88ZM155.592 123.78C155.592 126.82 154.692 129.66 153.132 132.14H150.632C152.392 129.7 153.432 126.84 153.432 123.78C153.432 120.72 152.392 117.86 150.632 115.42H153.132C154.692 117.9 155.592 120.74 155.592 123.78Z" fill="#FF0004"/>
<path d="M126 151C126 146.029 130.029 142 135 142C139.971 142 144 146.029 144 151C144 155.971 139.971 160 135 160C130.029 160 126 155.971 126 151Z" fill="#343A40"/>
<path d="M132.488 154.435V153.823L135.044 151.257C135.962 150.33 136.322 149.745 136.322 149.232C136.322 148.386 135.746 147.891 134.846 147.891C133.874 147.891 133.352 148.629 133.352 149.43H132.407C132.407 148.125 133.352 147.054 134.855 147.054C136.304 147.054 137.258 147.927 137.258 149.223C137.258 149.997 136.817 150.654 135.737 151.761L133.847 153.615H137.501V154.435H132.488Z" fill="#868E96"/>
<path d="M148.768 146.624H151.12V145.34H152.032V146.624H154.372V147.368H152.032V147.56C152.032 148.856 153.076 150.02 154.612 150.476L154.18 151.196C152.98 150.812 152.056 150.02 151.6 149C151.144 150.116 150.172 150.968 148.936 151.388L148.492 150.668C150.028 150.2 151.12 148.964 151.12 147.56V147.368H148.768V146.624ZM150.052 155.732V152.096H156.616V155.732H150.052ZM150.94 155H155.716V152.828H150.94V155ZM155.704 151.604V145.388H156.616V148.052H158.176V148.832H156.616V151.604H155.704ZM161.276 146.192C162.236 146.192 163.028 146.756 163.484 147.74H166.208V145.364H167.108V155.9H166.208V151.82H163.532C163.1 152.876 162.284 153.5 161.276 153.5C159.752 153.5 158.672 152.072 158.672 149.84C158.672 147.608 159.752 146.192 161.276 146.192ZM159.524 149.84C159.524 151.568 160.244 152.696 161.276 152.696C162.296 152.696 163.016 151.568 163.016 149.84C163.016 148.124 162.296 147.008 161.276 147.008C160.244 147.008 159.524 148.124 159.524 149.84ZM163.736 148.484C163.844 148.892 163.892 149.348 163.892 149.84C163.892 150.284 163.844 150.692 163.772 151.064H166.208V148.484H163.736ZM168.661 146.456H174.313V147.224H171.973V148.616C171.973 150.296 173.185 152.156 174.685 152.888L174.157 153.608C172.993 153.02 171.997 151.772 171.529 150.356C171.049 151.892 170.005 153.248 168.829 153.872L168.289 153.14C169.765 152.408 171.073 150.416 171.073 148.616V147.224H168.661V146.456ZM175.597 155.9V145.376H176.509V149.636H178.249V150.416H176.509V155.9H175.597ZM182.714 146.468V154.868H181.886V147.368L181.034 147.656L180.758 146.864L181.886 146.468H182.714Z" fill="#868E96"/>
<path d="M28 46C28 41.5817 31.5817 38 36 38H196C200.418 38 204 41.5817 204 46V70C204 74.4183 200.418 78 196 78H36C31.5817 78 28 74.4183 28 70V46Z" fill="#243348"/>
<path d="M45.2886 54.866L46.1566 52.038H46.9966L46.5346 54.866H45.2886ZM48.255 53.144H50.957V51.688H52.147V53.144H54.835V54.124H52.147V54.278C52.147 55.748 53.309 57.092 55.143 57.624L54.583 58.576C53.169 58.142 52.105 57.246 51.573 56.098C51.027 57.358 49.935 58.338 48.479 58.8L47.905 57.848C49.753 57.288 50.957 55.874 50.957 54.278V54.124H48.255V53.144ZM56.263 51.744H57.481V54.824H59.287V55.832H57.481V59.01H56.263V51.744ZM49.711 59.584H57.481V63.896H49.711V59.584ZM56.291 60.55H50.901V62.916H56.291V60.55ZM62.9314 52.668C64.0514 52.668 64.9754 53.326 65.5074 54.46H68.6014V51.716H69.7914V64.078H68.6014V59.332H65.5914C65.0594 60.564 64.1074 61.292 62.9314 61.292C61.1254 61.292 59.8514 59.612 59.8514 56.98C59.8514 54.334 61.1254 52.668 62.9314 52.668ZM62.9314 53.76C61.7834 53.76 60.9994 55.006 60.9994 56.98C60.9994 58.954 61.7834 60.214 62.9314 60.214C64.0794 60.214 64.8774 58.954 64.8774 56.98C64.8774 55.006 64.0794 53.76 62.9314 53.76ZM65.8434 55.454C65.9554 55.916 66.0114 56.42 66.0114 56.98C66.0114 57.47 65.9694 57.918 65.8854 58.338H68.6014V55.454H65.8434ZM71.6017 52.99H78.2657V53.998H75.5777V55.44C75.5777 57.386 76.9077 59.57 78.7277 60.424L78.0417 61.39C76.6697 60.718 75.5497 59.304 74.9897 57.68C74.4297 59.444 73.2677 60.998 71.8817 61.698L71.1677 60.732C72.9597 59.85 74.3877 57.526 74.3877 55.44V53.998H71.6017V52.99ZM79.6517 51.744H80.8697V56.686H82.8577V57.694H80.8697V64.064H79.6517V51.744ZM86.614 52.892V63.014H85.452V54.18L83.8 55.244L83.226 54.32L85.452 52.892H86.614ZM90.0998 52.052L89.2318 54.88H88.3918L88.8538 52.052H90.0998ZM100.164 51.73H101.382V58.702H100.164V51.73ZM92.0302 52.444H93.2342V56.798C95.2222 56.784 96.9722 56.658 98.8622 56.252L99.0442 57.26C97.0002 57.68 95.1662 57.82 93.0382 57.82H92.0302V52.444ZM93.3882 59.276H101.382V63.882H93.3882V59.276ZM100.192 60.256H94.5782V62.902H100.192V60.256ZM111.887 51.716H113.105V64.078H111.887V51.716ZM106.581 52.668C108.415 52.668 109.731 54.334 109.731 56.98C109.731 59.612 108.415 61.292 106.581 61.292C104.747 61.292 103.431 59.612 103.431 56.98C103.431 54.334 104.747 52.668 106.581 52.668ZM106.581 53.76C105.419 53.76 104.607 55.006 104.607 56.98C104.607 58.954 105.419 60.214 106.581 60.214C107.743 60.214 108.555 58.954 108.555 56.98C108.555 55.006 107.743 53.76 106.581 53.76ZM118.439 52.85H124.809V53.816H119.643V55.202H124.543V56.168H119.643V57.624H124.837V58.604H122.163V60.522C123.297 60.452 124.445 60.354 125.523 60.186L125.621 61.082C122.877 61.614 119.867 61.628 117.683 61.628L117.529 60.606C118.523 60.606 119.699 60.606 120.945 60.564V58.604H118.439V52.85ZM126.321 51.716H127.525V64.078H126.321V51.716ZM129.504 52.626H136.112V53.62H133.424V54.026C133.424 55.608 134.544 57.05 136.378 57.652L135.804 58.59C134.404 58.128 133.382 57.19 132.85 55.986C132.318 57.372 131.226 58.464 129.756 58.982L129.154 58.016C131.03 57.372 132.22 55.776 132.22 54.026V53.62H129.504V52.626ZM137.568 51.744H138.786V54.838H140.592V55.832H138.786V59.15H137.568V51.744ZM134.852 59.472C137.372 59.472 138.912 60.298 138.912 61.74C138.912 63.196 137.372 64.036 134.852 64.036C132.346 64.036 130.792 63.196 130.792 61.74C130.792 60.298 132.346 59.472 134.852 59.472ZM134.852 60.424C133.06 60.424 131.982 60.9 131.982 61.74C131.982 62.594 133.06 63.084 134.852 63.084C136.644 63.084 137.722 62.594 137.722 61.74C137.722 60.9 136.644 60.424 134.852 60.424ZM141.884 52.906H148.156V53.872H143.102V56.994H148.212V57.988H145.594V60.34C146.756 60.298 147.904 60.214 148.996 60.088L149.094 60.97C146.406 61.376 143.494 61.446 141.156 61.432L141.002 60.424C142.038 60.424 143.2 60.41 144.376 60.382V57.988H141.884V52.906ZM149.794 51.716H150.998V64.078H149.794V51.716ZM155.804 59.22H156.98V59.906C156.98 60.998 157.512 62.16 158.646 62.832C159.78 62.09 160.354 60.858 160.354 59.906V59.22H161.544V59.906C161.544 61.194 162.412 62.468 163.98 63L163.378 63.896C162.174 63.476 161.348 62.622 160.928 61.6C160.55 62.594 159.808 63.532 158.66 64.022C157.484 63.56 156.742 62.664 156.378 61.642C155.944 62.622 155.118 63.462 153.97 63.896L153.354 63C154.922 62.426 155.804 61.11 155.804 59.906V59.22ZM156.056 52.43C157.666 52.43 158.926 53.382 159.178 54.796H161.628V51.744H162.846V58.744H161.628V55.79H159.178C158.954 57.232 157.694 58.198 156.056 58.198C154.236 58.198 152.892 57.022 152.892 55.314C152.892 53.62 154.236 52.43 156.056 52.43ZM156.056 53.438C154.894 53.438 154.04 54.208 154.04 55.314C154.04 56.434 154.894 57.204 156.056 57.204C157.204 57.204 158.058 56.434 158.058 55.314C158.058 54.208 157.204 53.438 156.056 53.438ZM167.709 52.668C169.361 52.668 170.593 54.096 170.761 56.406H173.379V51.716H174.569V64.078H173.379V57.372H170.775C170.663 59.78 169.417 61.292 167.709 61.292C165.903 61.292 164.629 59.612 164.629 56.98C164.629 54.334 165.903 52.668 167.709 52.668ZM167.709 53.76C166.561 53.76 165.777 55.006 165.777 56.98C165.777 58.954 166.561 60.214 167.709 60.214C168.857 60.214 169.641 58.954 169.641 56.98C169.641 55.006 168.857 53.76 167.709 53.76ZM176.155 61.488H178.857V58.212C177.835 57.652 177.219 56.784 177.219 55.664C177.219 53.732 179.109 52.486 181.713 52.486C184.345 52.486 186.207 53.732 186.207 55.664C186.207 56.77 185.605 57.638 184.611 58.184V61.488H187.313V62.482H176.155V61.488ZM181.713 53.438C179.781 53.438 178.409 54.32 178.409 55.664C178.409 57.022 179.781 57.89 181.713 57.89C183.659 57.89 185.031 57.022 185.031 55.664C185.031 54.32 183.659 53.438 181.713 53.438ZM180.061 61.488H183.393V58.646C182.889 58.772 182.315 58.842 181.713 58.842C181.125 58.842 180.565 58.772 180.061 58.66V61.488Z" fill="#F1F3F5"/>
<defs>
<linearGradient id="paint0_linear_3949_35776" x1="116" y1="0" x2="116" y2="210" gradientUnits="userSpaceOnUse">
<stop stop-color="#212529"/>
<stop offset="1" stop-color="#060D24"/>
</linearGradient>
</defs>
</svg>