<svg xmlns="http://www.w3.org/2000/svg" width="232" height="210" viewBox="0 0 232 210" fill="none">
<path d="M0 16C0 7.16344 7.16344 0 16 0H216C224.837 0 232 7.16344 232 16V194C232 202.837 224.837 210 216 210H16C7.16344 210 0 202.837 0 194V16Z" fill="url(#paint0_linear_3949_35775)"/>
<path d="M29 46C29 41.5817 32.5817 38 37 38H195C199.418 38 203 41.5817 203 46V70C203 74.4183 199.418 78 195 78H37C32.5817 78 29 74.4183 29 70V46Z" fill="#243348"/>
<path d="M46.523 54.81L47.419 52.15H48.301L47.839 54.81H46.523ZM49.5435 53.116H52.2035V51.688H53.4915V53.116H56.1515V54.152H53.4915V54.278C53.4915 55.72 54.6115 57.064 56.4735 57.596L55.8715 58.604C54.4575 58.184 53.4215 57.288 52.8755 56.168C52.3435 57.4 51.2515 58.366 49.8095 58.828L49.1935 57.82C51.0555 57.26 52.2035 55.846 52.2035 54.278V54.152H49.5435V53.116ZM51.0135 63.91V59.584H58.8255V63.91H51.0135ZM52.2735 62.888H57.5515V60.606H52.2735V62.888ZM57.5375 59.024V51.73H58.8255V54.782H60.5895V55.874H58.8255V59.024H57.5375ZM64.2758 52.654C65.3958 52.654 66.3198 53.298 66.8658 54.418H69.8898V51.702H71.1778V64.106H69.8898V59.36H66.9498C66.4178 60.592 65.4518 61.32 64.2758 61.32C62.4698 61.32 61.1678 59.626 61.1678 56.98C61.1678 54.32 62.4698 52.654 64.2758 52.654ZM62.3858 56.98C62.3858 58.954 63.1558 60.172 64.2758 60.172C65.3818 60.172 66.1518 58.954 66.1518 56.98C66.1518 55.02 65.3818 53.816 64.2758 53.816C63.1558 53.816 62.3858 55.02 62.3858 56.98ZM67.2298 55.468C67.3278 55.93 67.3838 56.434 67.3838 56.98C67.3838 57.456 67.3418 57.904 67.2578 58.31H69.8898V55.468H67.2298ZM72.9181 52.962H79.5961V54.04H76.9361V55.384C76.9361 57.33 78.2241 59.514 80.0721 60.396L79.3441 61.418C77.9721 60.746 76.8661 59.346 76.3201 57.722C75.7601 59.472 74.6121 61.012 73.2121 61.726L72.4561 60.704C74.2901 59.808 75.6621 57.484 75.6621 55.384V54.04H72.9181V52.962ZM80.9261 64.092V51.73H82.2141V56.644H84.1741V57.722H82.2141V64.092H80.9261ZM84.7104 61.544C86.6984 59.584 89.5544 57.806 89.5544 56.042C89.5544 54.852 88.7004 54.194 87.7064 54.194C86.9924 54.194 86.1944 54.446 85.7044 55.58L84.5564 55.076C85.3124 53.382 86.7544 52.962 87.7064 52.962C89.2044 52.962 90.7864 54.152 90.7864 56.042C90.7864 58.114 88.4344 59.906 86.5584 61.544H90.9404V62.776H84.6964V61.544H84.7104ZM93.7694 52.164L92.8874 54.81H91.9914L92.4674 52.164H93.7694ZM103.804 51.716H105.092V58.702H103.804V51.716ZM95.6978 57.848V52.444H96.9718V56.784C98.9458 56.77 100.71 56.63 102.544 56.224L102.726 57.302C100.724 57.722 98.8758 57.848 96.7058 57.848H95.6978ZM97.0558 63.91V59.276H105.092V63.91H97.0558ZM98.3298 62.888H103.832V60.298H98.3298V62.888ZM118.253 51.702H119.555V64.106H118.253V51.702ZM109.839 56.98C109.839 54.32 111.169 52.654 113.003 52.654C114.837 52.654 116.181 54.32 116.181 56.98C116.181 59.626 114.837 61.32 113.003 61.32C111.169 61.32 109.839 59.626 109.839 56.98ZM111.085 56.98C111.085 58.954 111.869 60.172 113.003 60.172C114.151 60.172 114.935 58.954 114.935 56.98C114.935 55.02 114.151 53.816 113.003 53.816C111.869 53.816 111.085 55.02 111.085 56.98ZM124.473 52.654C126.139 52.654 127.371 54.068 127.553 56.378H130.087V51.702H131.375V64.106H130.087V57.414H127.567C127.441 59.808 126.181 61.32 124.473 61.32C122.667 61.32 121.365 59.626 121.365 56.98C121.365 54.32 122.667 52.654 124.473 52.654ZM122.583 56.98C122.583 58.954 123.353 60.172 124.473 60.172C125.579 60.172 126.335 58.954 126.335 56.98C126.335 55.02 125.579 53.816 124.473 53.816C123.353 53.816 122.583 55.02 122.583 56.98ZM141.123 51.702H142.411V56.658H144.329V57.736H142.411V64.078H141.123V51.702ZM132.905 60.788C135.971 59.234 137.651 56.966 137.903 54.082H133.493V53.032H139.205C139.205 56.602 137.637 59.766 133.619 61.782L132.905 60.788ZM147.34 58.688H158.512V59.752H153.528V64.078H152.254V59.752H147.34V58.688ZM147.97 56.728C150.266 56.406 152.184 55.02 152.212 53.48H148.362V52.458H157.448V53.48H153.64C153.668 55.02 155.586 56.406 157.882 56.728L157.406 57.75C155.418 57.428 153.682 56.42 152.926 55.006C152.184 56.42 150.434 57.428 148.46 57.75L147.97 56.728ZM163.949 56.084H165.867V51.982H167.071V63.476H165.867V57.134H163.949V56.084ZM158.923 60.508C160.659 59.472 161.569 57.274 161.569 55.16V52.864H162.829V55.104C162.829 57.078 163.655 59.192 165.279 60.2L164.565 61.208C163.417 60.508 162.633 59.262 162.213 57.82C161.765 59.388 160.925 60.732 159.735 61.474L158.923 60.508ZM168.387 64.078V51.716H169.619V64.078H168.387ZM170.813 61.488H173.487V58.226C172.479 57.666 171.877 56.784 171.877 55.692C171.877 53.732 173.767 52.472 176.385 52.472C179.031 52.472 180.921 53.732 180.921 55.692C180.921 56.784 180.319 57.666 179.311 58.226V61.488H181.999V62.552H170.813V61.488ZM173.123 55.692C173.123 57.022 174.481 57.876 176.385 57.876C178.303 57.876 179.647 57.022 179.647 55.692C179.647 54.348 178.303 53.48 176.385 53.48C174.481 53.48 173.123 54.348 173.123 55.692ZM174.761 61.488H178.037V58.702C177.533 58.814 176.973 58.884 176.385 58.884C175.797 58.884 175.251 58.828 174.761 58.702V61.488ZM185.111 52.668L184.915 60.438H183.767L183.543 52.668H185.111ZM183.599 62.356C183.599 61.95 183.865 61.628 184.341 61.628C184.803 61.628 185.069 61.95 185.069 62.356C185.069 62.776 184.803 63.098 184.341 63.098C183.865 63.098 183.599 62.776 183.599 62.356Z" fill="#F1F3F5"/>
<mask id="mask0_3949_35775" style="mask-type:alpha" maskUnits="userSpaceOnUse" x="39" y="113" width="33" height="33">
<path d="M55.5 146C64.6127 146 72 138.613 72 129.5C72 120.387 64.6127 113 55.5 113C46.3873 113 39 120.387 39 129.5C39 138.613 46.3873 146 55.5 146Z" fill="#D9D9D9"/>
</mask>
<g mask="url(#mask0_3949_35775)">
<path d="M55.5 145.5C54.7913 145.5 54.0936 145.454 53.4096 145.365L53.3449 145.861C51.8898 145.671 50.4943 145.291 49.184 144.748L49.3755 144.286C48.075 143.747 46.8609 143.041 45.7597 142.195L45.4551 142.591C44.312 141.713 43.2873 140.688 42.4089 139.545L42.8054 139.24C41.9592 138.139 41.2532 136.925 40.7139 135.624L40.252 135.816C39.7087 134.506 39.3293 133.11 39.1395 131.655L39.6353 131.59C39.546 130.906 39.5 130.209 39.5 129.5C39.5 128.791 39.546 128.094 39.6353 127.41L39.1395 127.345C39.3293 125.89 39.7087 124.494 40.252 123.184L40.7139 123.376C41.2532 122.075 41.9592 120.861 42.8054 119.76L42.4089 119.455C43.2873 118.312 44.312 117.287 45.4551 116.409L45.7597 116.805C46.8609 115.959 48.075 115.253 49.3755 114.714L49.184 114.252C50.4943 113.709 51.8898 113.329 53.3449 113.139L53.4096 113.635C54.0936 113.546 54.7913 113.5 55.5 113.5C56.2087 113.5 56.9064 113.546 57.5904 113.635L57.6551 113.139C59.1102 113.329 60.5057 113.709 61.816 114.252L61.6245 114.714C62.925 115.253 64.1391 115.959 65.2403 116.805L65.5449 116.409C66.688 117.287 67.7127 118.312 68.5911 119.455L68.1946 119.76C69.0408 120.861 69.7468 122.075 70.2861 123.376L70.748 123.184C71.2913 124.494 71.6707 125.89 71.8605 127.345L71.3647 127.41C71.454 128.094 71.5 128.791 71.5 129.5C71.5 130.209 71.454 130.906 71.3647 131.59L71.8605 131.655C71.6707 133.11 71.2913 134.506 70.748 135.816L70.2861 135.624C69.7468 136.925 69.0408 138.139 68.1946 139.24L68.5911 139.545C67.7127 140.688 66.688 141.713 65.5449 142.591L65.2403 142.195C64.1391 143.041 62.925 143.747 61.6245 144.286L61.816 144.748C60.5057 145.291 59.1102 145.671 57.6551 145.861L57.5904 145.365C56.9064 145.454 56.2087 145.5 55.5 145.5Z" stroke="#FF0004" stroke-linejoin="round" stroke-dasharray="4 4"/>
</g>
<path d="M55 122V130H63" stroke="#FF0004" stroke-linecap="round" stroke-linejoin="round"/>
<path d="M38.4299 152.948H39.4529V154.62C39.4529 156.402 40.5089 158.184 41.9939 158.855L41.3889 159.658C40.2779 159.119 39.4089 158.019 38.9579 156.688C38.5179 158.107 37.6159 159.284 36.4719 159.856L35.8559 159.02C37.3519 158.327 38.4299 156.468 38.4299 154.62V152.948ZM42.8739 161.869V152.123H43.8859V161.869H42.8739ZM51.5702 152.145H52.5822V155.027H53.9682V155.863H52.5822V159.196H51.5702V152.145ZM45.0142 157.326C47.2692 156.633 48.6992 155.324 48.8752 153.707H45.4212V152.882H49.9642C49.9642 155.434 48.2482 157.26 45.4432 158.14L45.0142 157.326ZM46.4772 161.649V158.481H47.4892V160.813H52.9892V161.649H46.4772ZM56.1746 159.823H60.0576V157.7H61.0586V159.823H64.9636V160.659H56.1746V159.823ZM56.6036 157.238C58.5946 156.952 60.0246 155.819 60.0576 154.444H56.9776V153.63H60.0576V152.332H61.0586V153.63H64.1496V154.444H61.0696C61.1026 155.819 62.5546 156.952 64.5236 157.238L64.1386 158.041C62.5326 157.777 61.1906 157.007 60.5636 155.885C59.9476 157.007 58.5946 157.777 56.9776 158.041L56.6036 157.238ZM65.7068 153.168H70.6238V153.773C70.6238 154.598 70.6238 155.841 70.3598 157.601L69.3588 157.491C69.6118 155.94 69.6338 154.796 69.6338 153.993H65.7068V153.168ZM65.1898 158.932C65.7948 158.932 66.4658 158.921 67.1698 158.91V155.951H68.1598V158.877C69.1938 158.844 70.2498 158.778 71.2068 158.657L71.2508 159.394C69.2598 159.713 67.0048 159.768 65.3108 159.779L65.1898 158.932ZM71.7678 161.847V152.134H72.7688V156.16H74.2758V157.007H72.7688V161.847H71.7678Z" fill="#FF0004"/>
<mask id="mask1_3949_35775" style="mask-type:alpha" maskUnits="userSpaceOnUse" x="95" y="106" width="42" height="42">
<path d="M116 147.312C127.218 147.312 136.312 138.218 136.312 127C136.312 115.782 127.218 106.687 116 106.687C104.782 106.687 95.6875 115.782 95.6875 127C95.6875 138.218 104.782 147.312 116 147.312Z" fill="#D9D9D9"/>
</mask>
<g mask="url(#mask1_3949_35775)">
<path d="M116 147.312C127.218 147.312 136.312 138.218 136.312 127C136.312 115.782 127.218 106.687 116 106.687C104.782 106.687 95.6875 115.782 95.6875 127C95.6875 138.218 104.782 147.312 116 147.312Z" fill="#4DB4FF"/>
<path d="M116 131.687C120.315 131.687 123.812 128.19 123.812 123.875C123.812 119.56 120.315 116.062 116 116.062C111.685 116.062 108.188 119.56 108.188 123.875C108.188 128.19 111.685 131.687 116 131.687Z" fill="#D3EDFF"/>
<path d="M116 167.625C126.355 167.625 134.75 159.23 134.75 148.875C134.75 138.52 126.355 130.125 116 130.125C105.645 130.125 97.25 138.52 97.25 148.875C97.25 159.23 105.645 167.625 116 167.625Z" fill="#D3EDFF"/>
</g>
<path d="M93.8172 156.892H96.3092V155.59H98.0452V156.892H100.551V158.25H98.0452C98.0732 159.538 98.9832 160.812 100.943 161.33L100.173 162.702C98.7452 162.324 97.7652 161.512 97.2052 160.49C96.6592 161.61 95.6512 162.478 94.1952 162.898L93.3832 161.554C95.3712 161.008 96.2812 159.65 96.3092 158.25H93.8172V156.892ZM95.2032 168.036V163.514H103.323V168.036H95.2032ZM96.9112 166.664H101.629V164.872H96.9112V166.664ZM101.587 162.982V155.632H103.323V158.572H105.003V160.028H103.323V162.982H101.587ZM108.648 156.5C109.768 156.5 110.706 157.116 111.28 158.208H113.996V155.604H115.732V168.204H113.996V163.514H111.392C110.832 164.746 109.838 165.46 108.648 165.46C106.772 165.46 105.414 163.724 105.414 160.966C105.414 158.222 106.772 156.5 108.648 156.5ZM107.052 160.966C107.052 162.856 107.71 163.878 108.648 163.878C109.572 163.878 110.216 162.856 110.216 160.966C110.216 159.09 109.572 158.082 108.648 158.082C107.71 158.082 107.052 159.09 107.052 160.966ZM111.756 159.608C111.84 160.028 111.882 160.476 111.882 160.966C111.882 161.372 111.854 161.75 111.798 162.1H113.996V159.608H111.756ZM117.164 156.836H124.024V158.264H121.518V159.062C121.518 160.966 122.54 163.192 124.584 164.13L123.618 165.516C122.232 164.858 121.238 163.584 120.664 162.072C120.118 163.724 119.096 165.138 117.654 165.824L116.674 164.452C118.718 163.486 119.782 161.134 119.782 159.062V158.264H117.164V156.836ZM125.004 168.19V155.632H126.754V160.434H128.588V161.876H126.754V168.19H125.004ZM131.837 165.194H131.851C133.881 163.234 136.541 161.778 136.541 160.112C136.541 159.09 135.771 158.516 134.903 158.516C134.301 158.516 133.559 158.74 133.097 159.762L131.557 159.062C132.355 157.284 133.993 156.836 134.903 156.836C136.471 156.836 138.221 158.166 138.221 160.112C138.221 162.184 136.205 163.752 134.427 165.194H138.361V166.874H131.837V165.194Z" fill="white"/>
<mask id="mask2_3949_35775" style="mask-type:alpha" maskUnits="userSpaceOnUse" x="160" y="112" width="34" height="34">
<path d="M177 145.25C185.975 145.25 193.25 137.975 193.25 129C193.25 120.025 185.975 112.75 177 112.75C168.026 112.75 160.75 120.025 160.75 129C160.75 137.975 168.026 145.25 177 145.25Z" fill="#D9D9D9"/>
</mask>
<g mask="url(#mask2_3949_35775)">
<path d="M177 145.25C185.975 145.25 193.25 137.975 193.25 129C193.25 120.025 185.975 112.75 177 112.75C168.026 112.75 160.75 120.025 160.75 129C160.75 137.975 168.026 145.25 177 145.25Z" fill="#CED4DA"/>
<path d="M177 132.75C180.452 132.75 183.25 129.952 183.25 126.5C183.25 123.048 180.452 120.25 177 120.25C173.549 120.25 170.75 123.048 170.75 126.5C170.75 129.952 173.549 132.75 177 132.75Z" fill="#F1F3F5"/>
<path d="M177 161.5C185.285 161.5 192 154.784 192 146.5C192 138.216 185.285 131.5 177 131.5C168.716 131.5 162 138.216 162 146.5C162 154.784 168.716 161.5 177 161.5Z" fill="#F1F3F5"/>
</g>
<path d="M160.112 153.322H162.279V152.134H163.093V153.322H165.249V153.993H163.093V154.169C163.093 155.368 164.061 156.424 165.458 156.842L165.073 157.502C163.973 157.15 163.115 156.413 162.697 155.478C162.29 156.512 161.388 157.304 160.255 157.678L159.859 157.029C161.267 156.589 162.279 155.467 162.279 154.169V153.993H160.112V153.322ZM166.47 152.178H167.295V154.631H168.736V155.324H167.295V157.876H166.47V152.178ZM161.278 158.338H167.295V161.671H161.278V158.338ZM166.481 158.998H162.081V161H166.481V158.998ZM171.504 152.926C172.384 152.926 173.11 153.443 173.517 154.345H176.036V152.167H176.85V161.814H176.036V158.074H173.572C173.176 159.053 172.428 159.625 171.504 159.625C170.107 159.625 169.117 158.316 169.117 156.27C169.117 154.224 170.107 152.926 171.504 152.926ZM171.504 153.663C170.558 153.663 169.898 154.697 169.898 156.27C169.898 157.843 170.558 158.888 171.504 158.888C172.461 158.888 173.121 157.843 173.121 156.27C173.121 154.697 172.461 153.663 171.504 153.663ZM173.748 155.027C173.847 155.401 173.891 155.819 173.891 156.27C173.891 156.677 173.847 157.051 173.781 157.392H176.036V155.027H173.748ZM178.253 153.168H183.434V153.861H181.278V155.159C181.278 156.688 182.4 158.404 183.775 159.053L183.302 159.713C182.224 159.174 181.311 158.03 180.882 156.743C180.442 158.14 179.474 159.383 178.407 159.944L177.923 159.295C179.265 158.624 180.475 156.798 180.475 155.159V153.861H178.253V153.168ZM184.622 152.178H185.447V156.094H187.042V156.787H185.447V161.803H184.622V152.178ZM193.406 156.897C194.11 157.326 194.495 158.096 194.495 158.756C194.495 160.109 193.439 161.066 191.932 161.066C190.436 161.066 189.38 160.109 189.38 158.756H190.172C190.172 159.702 190.898 160.362 191.932 160.362C192.977 160.362 193.703 159.702 193.703 158.767C193.703 157.876 192.977 157.249 191.954 157.249H191.371V156.523H191.954C192.911 156.523 193.593 155.951 193.593 155.137C193.593 154.29 192.933 153.696 191.998 153.696C191.052 153.696 190.392 154.301 190.392 155.159H189.6C189.6 153.883 190.59 152.992 191.998 152.992C193.395 152.992 194.385 153.883 194.385 155.159C194.385 155.753 194.044 156.468 193.406 156.897Z" fill="#ADB5BD"/>
<defs>
<linearGradient id="paint0_linear_3949_35775" x1="116" y1="0" x2="116" y2="210" gradientUnits="userSpaceOnUse">
<stop stop-color="#212529"/>
<stop offset="1" stop-color="#060D24"/>
</linearGradient>
</defs>
</svg>