<svg xmlns="http://www.w3.org/2000/svg" width="232" height="210" viewBox="0 0 232 210" fill="none">
<path d="M0 16C0 7.16344 7.16344 0 16 0H216C224.837 0 232 7.16344 232 16V194C232 202.837 224.837 210 216 210H16C7.16344 210 0 202.837 0 194V16Z" fill="url(#paint0_linear_3949_35772)"/>
<circle cx="38" cy="50" r="16" fill="#243348"/>
<path d="M37.9748 55.212C35.9108 55.212 34.6388 53.964 34.5668 52.284H35.8148C35.8508 53.316 36.6188 54.12 37.9748 54.12C39.3188 54.12 40.1228 53.352 40.1228 52.392C40.1228 51.312 39.2588 50.676 37.8068 50.676H36.7508V49.632H37.8068C39.0308 49.632 39.8588 48.936 39.8588 47.94C39.8588 47.004 39.1148 46.236 37.8428 46.236C36.5468 46.236 35.8388 47.148 35.8388 48.168H34.5788C34.5788 46.476 35.8748 45.156 37.8428 45.156C39.8228 45.156 41.1068 46.392 41.1068 47.904C41.1068 49.08 40.2788 49.896 39.3908 50.112C40.3628 50.292 41.3588 51.048 41.3588 52.38C41.3588 53.988 39.9908 55.212 37.9748 55.212Z" fill="#F1F3F5"/>
<circle cx="90" cy="50" r="16" fill="#243348"/>
<path d="M89.8191 54.996V46.488H87.8271V45.384H91.0791V54.996H89.8191Z" fill="#F1F3F5"/>
<circle cx="142" cy="50" r="16" fill="#243348"/>
<path d="M143.076 54.996V52.824H138.228V51.756L142.788 45.384H144.276V51.756H145.848V52.824H144.276V54.996H143.076ZM139.524 51.756H143.076V46.764L139.524 51.756Z" fill="#F1F3F5"/>
<circle cx="194" cy="50" r="16" fill="#243348"/>
<path d="M190.651 54.996V54.18L194.059 50.76C195.283 49.524 195.763 48.744 195.763 48.06C195.763 46.932 194.995 46.272 193.795 46.272C192.499 46.272 191.803 47.256 191.803 48.324H190.543C190.543 46.584 191.803 45.156 193.807 45.156C195.739 45.156 197.011 46.32 197.011 48.048C197.011 49.08 196.423 49.956 194.983 51.432L192.463 53.904H197.335V54.996H190.651Z" fill="#F1F3F5"/>
<path d="M38 112L38 74" stroke="#868E96" stroke-dasharray="4 4"/>
<path d="M90 112L90 74" stroke="#868E96" stroke-dasharray="4 4"/>
<path d="M142 112L142 74" stroke="#868E96" stroke-dasharray="4 4"/>
<path d="M194 112L194 74" stroke="#868E96" stroke-dasharray="4 4"/>
<mask id="mask0_3949_35772" style="mask-type:alpha" maskUnits="userSpaceOnUse" x="20" y="121" width="34" height="34">
<path d="M37 154.25C45.9746 154.25 53.25 146.975 53.25 138C53.25 129.025 45.9746 121.75 37 121.75C28.0254 121.75 20.75 129.025 20.75 138C20.75 146.975 28.0254 154.25 37 154.25Z" fill="#D9D9D9"/>
</mask>
<g mask="url(#mask0_3949_35772)">
<path d="M37 154.25C45.9746 154.25 53.25 146.975 53.25 138C53.25 129.025 45.9746 121.75 37 121.75C28.0254 121.75 20.75 129.025 20.75 138C20.75 146.975 28.0254 154.25 37 154.25Z" fill="#4DB4FF"/>
<path d="M37 141.75C40.4518 141.75 43.25 138.952 43.25 135.5C43.25 132.048 40.4518 129.25 37 129.25C33.5482 129.25 30.75 132.048 30.75 135.5C30.75 138.952 33.5482 141.75 37 141.75Z" fill="#D3EDFF"/>
<path d="M37 170.5C45.2843 170.5 52 163.784 52 155.5C52 147.216 45.2843 140.5 37 140.5C28.7157 140.5 22 147.216 22 155.5C22 163.784 28.7157 170.5 37 170.5Z" fill="#D3EDFF"/>
</g>
<path d="M32.4867 167.228C34.4447 167.228 35.6437 167.888 35.6437 169.01C35.6437 170.143 34.4447 170.792 32.4867 170.792C30.5287 170.792 29.3297 170.143 29.3297 169.01C29.3297 167.888 30.5287 167.228 32.4867 167.228ZM32.4867 167.899C31.0347 167.899 30.1327 168.317 30.1327 169.01C30.1327 169.714 31.0347 170.132 32.4867 170.132C33.9277 170.132 34.8187 169.714 34.8187 169.01C34.8187 168.317 33.9277 167.899 32.4867 167.899ZM34.7197 161.178H35.5447V163.62H36.9747V164.313H35.5447V166.975H34.7197V161.178ZM28.5047 161.783H29.3187V163.257H32.1237V161.783H32.9377V166.216H28.5047V161.783ZM29.3187 163.917V165.545H32.1237V163.917H29.3187ZM37.421 161.893H42.569V162.575H40.413V162.993C40.413 164.269 41.359 165.402 42.756 165.875L42.36 166.513C41.271 166.139 40.435 165.38 40.028 164.401C39.621 165.512 38.73 166.392 37.586 166.799L37.168 166.15C38.598 165.644 39.599 164.401 39.599 163.004V162.575H37.421V161.893ZM43.823 161.178H44.648V163.653H46.089V164.335H44.648V166.986H43.823V161.178ZM41.59 167.261C43.548 167.261 44.747 167.899 44.747 169.01C44.747 170.132 43.548 170.781 41.59 170.781C39.643 170.781 38.444 170.132 38.444 169.01C38.444 167.899 39.643 167.261 41.59 167.261ZM41.59 167.921C40.149 167.921 39.247 168.328 39.247 169.01C39.247 169.714 40.149 170.132 41.59 170.132C43.042 170.132 43.933 169.714 43.933 169.01C43.933 168.328 43.042 167.921 41.59 167.921Z" fill="#F1F3F5"/>
<path d="M29.2436 118.958L30.1078 123.372C30.1735 123.707 30.5157 123.914 30.8455 123.824C32.0231 123.504 34.6856 122.857 37 122.857C39.3144 122.857 41.9769 123.504 43.1545 123.824C43.4843 123.914 43.8265 123.707 43.8922 123.372L44.7564 118.958C44.8513 118.474 44.3308 118.103 43.9035 118.351L40.5422 120.301C40.2804 120.453 39.9456 120.376 39.7766 120.125L37.477 116.709C37.2491 116.37 36.7509 116.37 36.523 116.709L34.2234 120.125C34.0544 120.376 33.7196 120.453 33.4578 120.301L30.0965 118.351C29.6692 118.103 29.1487 118.474 29.2436 118.958Z" fill="#FFA256"/>
<mask id="mask1_3949_35772" style="mask-type:alpha" maskUnits="userSpaceOnUse" x="72" y="121" width="34" height="34">
<path d="M89 154.25C97.9746 154.25 105.25 146.975 105.25 138C105.25 129.025 97.9746 121.75 89 121.75C80.0254 121.75 72.75 129.025 72.75 138C72.75 146.975 80.0254 154.25 89 154.25Z" fill="#D9D9D9"/>
</mask>
<g mask="url(#mask1_3949_35772)">
<path d="M89 154.25C97.9746 154.25 105.25 146.975 105.25 138C105.25 129.025 97.9746 121.75 89 121.75C80.0254 121.75 72.75 129.025 72.75 138C72.75 146.975 80.0254 154.25 89 154.25Z" fill="#4DB4FF"/>
<path d="M89 141.75C92.4518 141.75 95.25 138.952 95.25 135.5C95.25 132.048 92.4518 129.25 89 129.25C85.5482 129.25 82.75 132.048 82.75 135.5C82.75 138.952 85.5482 141.75 89 141.75Z" fill="#D3EDFF"/>
<path d="M89 170.5C97.2843 170.5 104 163.784 104 155.5C104 147.216 97.2843 140.5 89 140.5C80.7157 140.5 74 147.216 74 155.5C74 163.784 80.7157 170.5 89 170.5Z" fill="#D3EDFF"/>
</g>
<path d="M73.3285 162.322H75.4845V161.145H76.3205V162.322H78.4655V163.004H76.3205V163.18C76.3205 164.368 77.2775 165.435 78.6855 165.853L78.2895 166.513C77.1895 166.161 76.3425 165.435 75.9245 164.5C75.5065 165.523 74.6155 166.304 73.4825 166.689L73.0755 166.029C74.4835 165.6 75.4845 164.467 75.4845 163.18V163.004H73.3285V162.322ZM74.5055 170.671V167.338H80.5225V170.671H74.5055ZM75.3195 170H79.6975V168.009H75.3195V170ZM79.6865 166.887V161.189H80.5225V163.631H81.9525V164.346H80.5225V166.887H79.6865ZM84.7528 161.926C85.6328 161.926 86.3588 162.443 86.7768 163.345H89.2738V161.167H90.0988V170.825H89.2738V167.085H86.8208C86.4248 168.053 85.6768 168.625 84.7528 168.625C83.3558 168.625 82.3658 167.316 82.3658 165.27C82.3658 163.224 83.3558 161.926 84.7528 161.926ZM83.1468 165.27C83.1468 166.854 83.8068 167.888 84.7528 167.888C85.6878 167.888 86.3478 166.854 86.3478 165.27C86.3478 163.697 85.6878 162.674 84.7528 162.674C83.8068 162.674 83.1468 163.697 83.1468 165.27ZM87.0078 164.027C87.1068 164.401 87.1508 164.819 87.1508 165.27C87.1508 165.677 87.1068 166.051 87.0408 166.392H89.2738V164.027H87.0078ZM91.48 162.168H96.661V162.872H94.516V164.148C94.516 165.688 95.627 167.393 97.002 168.064L96.518 168.724C95.451 168.185 94.538 167.041 94.109 165.743C93.669 167.151 92.712 168.394 91.634 168.966L91.139 168.295C92.492 167.624 93.691 165.798 93.691 164.148V162.872H91.48V162.168ZM97.838 170.825V161.178H98.674V165.083H100.269V165.798H98.674V170.825H97.838ZM104.279 162.179V169.879H103.52V163.004L102.739 163.268L102.486 162.542L103.52 162.179H104.279Z" fill="#F1F3F5"/>
<mask id="mask2_3949_35772" style="mask-type:alpha" maskUnits="userSpaceOnUse" x="124" y="121" width="34" height="34">
<path d="M141 154.25C149.975 154.25 157.25 146.975 157.25 138C157.25 129.025 149.975 121.75 141 121.75C132.025 121.75 124.75 129.025 124.75 138C124.75 146.975 132.025 154.25 141 154.25Z" fill="#D9D9D9"/>
</mask>
<g mask="url(#mask2_3949_35772)">
<path d="M141 154.25C149.975 154.25 157.25 146.975 157.25 138C157.25 129.025 149.975 121.75 141 121.75C132.025 121.75 124.75 129.025 124.75 138C124.75 146.975 132.025 154.25 141 154.25Z" fill="#4DB4FF"/>
<path d="M141 141.75C144.452 141.75 147.25 138.952 147.25 135.5C147.25 132.048 144.452 129.25 141 129.25C137.548 129.25 134.75 132.048 134.75 135.5C134.75 138.952 137.548 141.75 141 141.75Z" fill="#D3EDFF"/>
<path d="M141 170.5C149.284 170.5 156 163.784 156 155.5C156 147.216 149.284 140.5 141 140.5C132.716 140.5 126 147.216 126 155.5C126 163.784 132.716 170.5 141 170.5Z" fill="#D3EDFF"/>
</g>
<path d="M124.039 162.322H126.195V161.145H127.031V162.322H129.176V163.004H127.031V163.18C127.031 164.368 127.988 165.435 129.396 165.853L129 166.513C127.9 166.161 127.053 165.435 126.635 164.5C126.217 165.523 125.326 166.304 124.193 166.689L123.786 166.029C125.194 165.6 126.195 164.467 126.195 163.18V163.004H124.039V162.322ZM125.216 170.671V167.338H131.233V170.671H125.216ZM126.03 170H130.408V168.009H126.03V170ZM130.397 166.887V161.189H131.233V163.631H132.663V164.346H131.233V166.887H130.397ZM135.464 161.926C136.344 161.926 137.07 162.443 137.488 163.345H139.985V161.167H140.81V170.825H139.985V167.085H137.532C137.136 168.053 136.388 168.625 135.464 168.625C134.067 168.625 133.077 167.316 133.077 165.27C133.077 163.224 134.067 161.926 135.464 161.926ZM133.858 165.27C133.858 166.854 134.518 167.888 135.464 167.888C136.399 167.888 137.059 166.854 137.059 165.27C137.059 163.697 136.399 162.674 135.464 162.674C134.518 162.674 133.858 163.697 133.858 165.27ZM137.719 164.027C137.818 164.401 137.862 164.819 137.862 165.27C137.862 165.677 137.818 166.051 137.752 166.392H139.985V164.027H137.719ZM142.191 162.168H147.372V162.872H145.227V164.148C145.227 165.688 146.338 167.393 147.713 168.064L147.229 168.724C146.162 168.185 145.249 167.041 144.82 165.743C144.38 167.151 143.423 168.394 142.345 168.966L141.85 168.295C143.203 167.624 144.402 165.798 144.402 164.148V162.872H142.191V162.168ZM148.549 170.825V161.178H149.385V165.083H150.98V165.798H149.385V170.825H148.549ZM153.318 168.988C154.88 167.459 157.19 165.919 157.19 164.5C157.19 163.51 156.475 162.949 155.65 162.949C155.056 162.949 154.418 163.169 154 164.104L153.274 163.774C153.835 162.487 154.891 162.146 155.65 162.146C156.805 162.146 157.993 163.059 157.993 164.5C157.982 166.139 156.013 167.646 154.506 168.988H158.103V169.791H153.318V168.988Z" fill="#F1F3F5"/>
<mask id="mask3_3949_35772" style="mask-type:alpha" maskUnits="userSpaceOnUse" x="176" y="121" width="34" height="34">
<path d="M193 154.25C201.975 154.25 209.25 146.975 209.25 138C209.25 129.025 201.975 121.75 193 121.75C184.025 121.75 176.75 129.025 176.75 138C176.75 146.975 184.025 154.25 193 154.25Z" fill="#D9D9D9"/>
</mask>
<g mask="url(#mask3_3949_35772)">
<path d="M193 154.25C201.975 154.25 209.25 146.975 209.25 138C209.25 129.025 201.975 121.75 193 121.75C184.025 121.75 176.75 129.025 176.75 138C176.75 146.975 184.025 154.25 193 154.25Z" fill="#4DB4FF"/>
<path d="M193 141.75C196.452 141.75 199.25 138.952 199.25 135.5C199.25 132.048 196.452 129.25 193 129.25C189.548 129.25 186.75 132.048 186.75 135.5C186.75 138.952 189.548 141.75 193 141.75Z" fill="#D3EDFF"/>
<path d="M193 170.5C201.284 170.5 208 163.784 208 155.5C208 147.216 201.284 140.5 193 140.5C184.716 140.5 178 147.216 178 155.5C178 163.784 184.716 170.5 193 170.5Z" fill="#D3EDFF"/>
</g>
<path d="M175.894 162.322H178.05V161.145H178.886V162.322H181.031V163.004H178.886V163.18C178.886 164.368 179.843 165.435 181.251 165.853L180.855 166.513C179.755 166.161 178.908 165.435 178.49 164.5C178.072 165.523 177.181 166.304 176.048 166.689L175.641 166.029C177.049 165.6 178.05 164.467 178.05 163.18V163.004H175.894V162.322ZM177.071 170.671V167.338H183.088V170.671H177.071ZM177.885 170H182.263V168.009H177.885V170ZM182.252 166.887V161.189H183.088V163.631H184.518V164.346H183.088V166.887H182.252ZM187.319 161.926C188.199 161.926 188.925 162.443 189.343 163.345H191.84V161.167H192.665V170.825H191.84V167.085H189.387C188.991 168.053 188.243 168.625 187.319 168.625C185.922 168.625 184.932 167.316 184.932 165.27C184.932 163.224 185.922 161.926 187.319 161.926ZM185.713 165.27C185.713 166.854 186.373 167.888 187.319 167.888C188.254 167.888 188.914 166.854 188.914 165.27C188.914 163.697 188.254 162.674 187.319 162.674C186.373 162.674 185.713 163.697 185.713 165.27ZM189.574 164.027C189.673 164.401 189.717 164.819 189.717 165.27C189.717 165.677 189.673 166.051 189.607 166.392H191.84V164.027H189.574ZM194.046 162.168H199.227V162.872H197.082V164.148C197.082 165.688 198.193 167.393 199.568 168.064L199.084 168.724C198.017 168.185 197.104 167.041 196.675 165.743C196.235 167.151 195.278 168.394 194.2 168.966L193.705 168.295C195.058 167.624 196.257 165.798 196.257 164.148V162.872H194.046V162.168ZM200.404 170.825V161.178H201.24V165.083H202.835V165.798H201.24V170.825H200.404ZM209.045 165.897C209.694 166.282 210.244 166.931 210.244 167.701C210.244 168.999 209.034 169.945 207.681 169.945C206.339 169.945 205.129 168.999 205.129 167.701H205.921C205.921 168.427 206.636 169.164 207.681 169.164C208.737 169.164 209.463 168.438 209.463 167.712C209.463 166.986 208.968 166.271 207.703 166.271H207.12V165.501H207.703C208.792 165.501 209.364 164.874 209.364 164.192C209.364 163.554 208.704 162.883 207.747 162.883C206.79 162.883 206.141 163.543 206.141 164.214H205.349C205.349 163.004 206.493 162.113 207.747 162.113C209.012 162.113 210.134 163.004 210.134 164.214C210.134 164.918 209.639 165.512 209.045 165.897Z" fill="#F1F3F5"/>
<defs>
<linearGradient id="paint0_linear_3949_35772" x1="116" y1="0" x2="116" y2="210" gradientUnits="userSpaceOnUse">
<stop stop-color="#212529"/>
<stop offset="1" stop-color="#060D24"/>
</linearGradient>
</defs>
</svg>